<svg width="116" height="96" viewBox="0 0 116 96" fill="none" xmlns="http://www.w3.org/2000/svg">
<g clip-path="url(#clip0_2009_2206)">
<path d="M34.5498 64.3014V95.0957C34.5498 95.8708 35.448 96.2745 36.0255 95.7739L48.729 84.7448C49.515 84.0666 50.5094 83.6952 51.552 83.6952H101.66C109.552 83.6952 116 77.2037 116 69.2589V48.8962C116 40.9514 109.552 34.4599 101.66 34.4599H48.8894C40.9978 34.4599 34.5498 40.9514 34.5498 48.8962V64.3176V64.3014Z" fill="url(#paint0_linear_2009_2206)"/>
<path d="M79.8463 31.4725V62.2668C79.8463 63.0419 78.948 63.4456 78.3706 62.945L65.6671 51.9159C64.8811 51.2377 63.8866 50.8663 62.844 50.8663H15.9436C8.05201 50.8663 1.604 44.3748 1.604 36.4299V16.0673C1.604 8.10631 8.05201 1.61481 15.9436 1.61481H65.5067C73.3982 1.61481 79.8463 8.10631 79.8463 16.0511V31.4725Z" stroke="#C6E5DF" stroke-width="2" stroke-miterlimit="10"/>
</g>
<defs>
<linearGradient id="paint0_linear_2009_2206" x1="75.2749" y1="101.846" x2="75.2749" y2="40.2893" gradientUnits="userSpaceOnUse">
<stop stop-color="#9FD3CE" stop-opacity="0.2"/>
<stop offset="1" stop-color="#BCDC49" stop-opacity="0.5"/>
</linearGradient>
<clipPath id="clip0_2009_2206">
<rect width="116" height="96" fill="white"/>
</clipPath>
</defs>
</svg>
