<svg width="138" height="78" viewBox="0 0 138 78" fill="none" xmlns="http://www.w3.org/2000/svg">
<g clip-path="url(#clip0_2009_2220)">
<path d="M29.2516 32.1463C38.0548 32.1463 45.1912 24.9501 45.1912 16.0731C45.1912 7.19619 38.0548 0 29.2516 0C20.4484 0 13.312 7.19619 13.312 16.0731C13.312 24.9501 20.4484 32.1463 29.2516 32.1463Z" fill="url(#paint0_linear_2009_2220)"/>
<path d="M0 66.8069C0 50.5175 13.0975 37.3102 29.2516 37.3102C45.4057 37.3102 58.5032 50.5175 58.5032 66.8069" fill="url(#paint1_linear_2009_2220)"/>
<path d="M108.748 32.1463C117.551 32.1463 124.688 24.9501 124.688 16.0731C124.688 7.19619 117.551 0 108.748 0C99.945 0 92.8086 7.19619 92.8086 16.0731C92.8086 24.9501 99.945 32.1463 108.748 32.1463Z" fill="url(#paint2_linear_2009_2220)"/>
<path d="M79.4966 66.8069C79.4966 50.5175 92.5941 37.3102 108.748 37.3102C124.902 37.3102 138 50.5175 138 66.8069" fill="url(#paint3_linear_2009_2220)"/>
<path d="M69.1207 40.6357C77.9239 40.6357 85.0603 33.4395 85.0603 24.5626C85.0603 15.6856 77.9239 8.48944 69.1207 8.48944C60.3175 8.48944 53.1812 15.6856 53.1812 24.5626C53.1812 33.4395 60.3175 40.6357 69.1207 40.6357Z" stroke="#C6E5DF" stroke-width="2" stroke-miterlimit="10"/>
<path d="M39.8691 78C39.8691 61.7106 52.9667 48.5033 69.1207 48.5033C85.2748 48.5033 98.3723 61.7106 98.3723 78" stroke="#C6E5DF" stroke-width="2" stroke-miterlimit="10"/>
</g>
<defs>
<linearGradient id="paint0_linear_2009_2220" x1="29.2516" y1="66.4014" x2="29.2516" y2="2.46031" gradientUnits="userSpaceOnUse">
<stop stop-color="#9FD3CE" stop-opacity="0.5"/>
<stop offset="1" stop-color="#BCDC49" stop-opacity="0.5"/>
</linearGradient>
<linearGradient id="paint1_linear_2009_2220" x1="29.2516" y1="66.8069" x2="29.2516" y2="21.4264" gradientUnits="userSpaceOnUse">
<stop stop-color="#9FD3CE" stop-opacity="0.2"/>
<stop offset="1" stop-color="#BCDC49" stop-opacity="0.5"/>
</linearGradient>
<linearGradient id="paint2_linear_2009_2220" x1="108.748" y1="66.4014" x2="108.748" y2="2.46031" gradientUnits="userSpaceOnUse">
<stop stop-color="#9FD3CE" stop-opacity="0.5"/>
<stop offset="1" stop-color="#BCDC49" stop-opacity="0.5"/>
</linearGradient>
<linearGradient id="paint3_linear_2009_2220" x1="108.748" y1="66.8069" x2="108.748" y2="21.4264" gradientUnits="userSpaceOnUse">
<stop stop-color="#9FD3CE" stop-opacity="0.2"/>
<stop offset="1" stop-color="#BCDC49" stop-opacity="0.5"/>
</linearGradient>
<clipPath id="clip0_2009_2220">
<rect width="138" height="78" fill="white"/>
</clipPath>
</defs>
</svg>
