<svg width="25" height="25" viewBox="0 0 25 25" fill="none" xmlns="http://www.w3.org/2000/svg">
<g clip-path="url(#clip0_2010_2481)">
<path d="M0 1.83365C0 0.849123 0.827539 0.0499878 1.84766 0.0499878H23.1523C24.1729 0.0499878 25 0.849123 25 1.83365V23.1666C25 24.1514 24.1729 24.95 23.1523 24.95H1.84766C0.827637 24.95 0 24.1515 0 23.1669V1.83335V1.83365Z" fill="#0A404A"/>
<path d="M7.59727 20.888V9.67793H3.85625V20.888H7.59766H7.59727ZM5.72754 8.14765C7.03184 8.14765 7.84385 7.28685 7.84385 6.21109C7.81943 5.11082 7.03184 4.27405 5.75234 4.27405C4.47197 4.27405 3.63574 5.11082 3.63574 6.211C3.63574 7.28675 4.44746 8.14755 5.70303 8.14755H5.72725L5.72754 8.14765ZM9.66797 20.888H13.4087V14.6285C13.4087 14.2939 13.4331 13.9584 13.5319 13.7194C13.8022 13.0497 14.4178 12.3565 15.4515 12.3565C16.8048 12.3565 17.3465 13.3844 17.3465 14.8916V20.888H21.0871V14.4605C21.0871 11.0174 19.2418 9.41512 16.7806 9.41512C14.7627 9.41512 13.8765 10.5384 13.3841 11.3035H13.409V9.67832H9.66816C9.71699 10.73 9.66787 20.8884 9.66787 20.8884L9.66797 20.888Z" fill="white"/>
</g>
<defs>
<clipPath id="clip0_2010_2481">
<rect width="25" height="25" fill="white"/>
</clipPath>
</defs>
</svg>
