<svg width="19" height="18" viewBox="0 0 19 18" fill="none" xmlns="http://www.w3.org/2000/svg">
<g clip-path="url(#clip0_76_2694)">
<path d="M0.300781 1.55316C0.300781 0.883686 0.896609 0.340275 1.63109 0.340275H16.9705C17.7052 0.340275 18.3008 0.883686 18.3008 1.55316V16.0596C18.3008 16.7293 17.7052 17.2723 16.9705 17.2723H1.63109C0.89668 17.2723 0.300781 16.7293 0.300781 16.0598V1.55296V1.55316Z" fill="#0A404A"/>
<path d="M5.77124 14.5101V6.88727H3.07771V14.5101H5.77152H5.77124ZM4.42504 5.84668C5.36413 5.84668 5.94878 5.26134 5.94878 4.52982C5.9312 3.78164 5.36413 3.21263 4.4429 3.21263C3.52103 3.21263 2.91895 3.78164 2.91895 4.52976C2.91895 5.26127 3.50338 5.84661 4.40739 5.84661H4.42483L4.42504 5.84668ZM7.26215 14.5101H9.95547V10.2536C9.95547 10.0261 9.97305 9.79799 10.0442 9.63548C10.2388 9.1801 10.682 8.70872 11.4263 8.70872C12.4007 8.70872 12.7907 9.40769 12.7907 10.4325V14.5101H15.4839V10.1394C15.4839 7.79809 14.1553 6.70856 12.3832 6.70856C10.9304 6.70856 10.2923 7.47242 9.93775 7.99268H9.95568V6.88754H7.26229C7.29744 7.60265 7.26208 14.5104 7.26208 14.5104L7.26215 14.5101Z" fill="white"/>
</g>
<defs>
<clipPath id="clip0_76_2694">
<rect width="18" height="17" fill="white" transform="translate(0.300781 0.306274)"/>
</clipPath>
</defs>
</svg>
