<svg width="70" height="75" viewBox="0 0 70 75" fill="none" xmlns="http://www.w3.org/2000/svg">
<g clip-path="url(#clip0_2007_1667)">
<mask id="mask0_2007_1667" style="mask-type:luminance" maskUnits="userSpaceOnUse" x="1" y="3" width="69" height="69">
<path d="M69.1933 30.8435C68.1281 24.065 64.3592 19.1151 58.3429 15.8423C57.664 15.4696 57.1958 14.9805 56.8095 14.2933C50.9103 3.83444 38.1637 0.57332 27.8518 7.08391C27.3953 7.37508 26.9505 7.50319 26.4004 7.49154C21.8121 7.34014 17.5398 8.46988 13.8177 11.137C7.82481 15.4347 5.03906 21.3746 5.24975 28.7004C5.27316 29.4342 5.08588 30.0165 4.69962 30.6222C1.92558 35.0713 0.965781 39.8931 1.94899 45.006C3.16629 51.3186 6.78308 55.9541 12.4248 59.0288C13.2559 59.4831 13.806 60.0537 14.2625 60.8574C20.0212 70.9435 32.3581 74.2513 42.4009 68.3929C43.4309 67.7872 44.4141 67.3097 45.409 67.5543C49.0141 67.5543 52.4085 66.7623 55.206 65.1551C62.5683 60.9389 66.033 54.5564 65.7871 46.1474C65.7754 45.5767 65.8925 45.1108 66.1968 44.6217C68.8304 40.3939 69.9658 35.7817 69.1933 30.8551V30.8435ZM33.3648 8.31847C33.4116 7.84095 33.7744 7.6546 34.1724 7.53813C37.8711 6.50156 41.5347 6.51321 45.1398 7.92248C47.2701 8.76105 49.178 9.97232 50.8284 11.5563C51.2146 11.929 51.8818 12.2318 51.5424 12.9423C51.2263 13.6061 50.5943 13.2684 50.091 13.3033C47.4574 13.0121 44.8589 13.1403 42.2721 13.5945C41.722 13.6877 41.3358 13.4431 40.9378 13.1403C38.8309 11.4981 36.5602 10.1004 34.0436 9.1454C33.6574 8.99399 33.2828 8.80764 33.3414 8.30682L33.3648 8.31847ZM22.4559 17.5195C23.7434 15.0271 25.4757 12.8724 27.6528 11.0788C27.922 10.8575 28.2497 10.7876 28.6243 10.8458C31.3164 11.2884 33.833 12.2085 36.1856 13.5712C36.5017 13.7575 36.7358 13.9788 36.724 14.3865C36.7006 14.7825 36.4665 15.0154 36.1154 15.1319C31.9251 16.5411 27.6879 17.7408 23.3571 18.6143C23.2986 18.6143 23.2401 18.6259 23.1816 18.6376C22.5378 18.6376 22.1515 18.1135 22.4559 17.5195ZM11.5587 44.8779C11.2192 47.3121 11.1607 49.7696 11.465 52.2154C11.5001 52.4949 11.5118 52.7861 11.5352 53.0656C11.5704 53.4267 11.5235 53.7645 11.149 53.9275C10.751 54.1022 10.4233 53.9042 10.1424 53.648C8.07061 51.7612 6.5724 49.4901 5.64771 46.8579C4.50064 43.5851 4.41871 40.2774 5.30827 36.9348C5.42532 36.4805 5.48385 35.9448 6.15102 35.9098C6.75967 35.8865 6.90013 36.3408 7.0757 36.7601C8.12914 39.1826 9.51031 41.4188 11.1958 43.457C11.5587 43.8879 11.6289 44.3072 11.5587 44.8663V44.8779ZM13.1856 38.0529C13.0686 38.3673 13.0452 38.74 12.7408 38.9613C12.179 39.369 11.7928 39.1244 11.4767 38.6119C9.75611 35.9098 8.78461 32.9515 8.38665 29.7952C8.29301 29.0033 8.16425 28.2113 8.22278 27.5358C8.25789 19.8605 13.5134 13.0937 20.8289 11.1952C21.2854 11.0788 21.7536 10.9157 22.0813 11.3816C22.3973 11.8475 22.1398 12.2435 21.8472 12.6162C20.1617 14.7359 18.8859 17.1002 17.9612 19.6392C17.7973 20.0818 17.5398 20.338 17.1067 20.5011C15.1754 21.2465 13.3378 22.1899 11.6055 23.308C11.1724 23.5875 10.95 23.8903 10.9734 24.4144C10.9968 25.1249 10.9149 25.8353 10.9383 26.5574C10.9617 27.2912 11.2309 27.4076 11.8513 27.0117C12.8696 26.3594 13.8762 25.7072 14.8711 25.0317C15.2574 24.7755 15.6553 24.6473 16.065 24.9385C16.463 25.2297 16.3693 25.649 16.2991 26.045C15.5383 30.1097 14.6136 34.1395 13.1856 38.0296V38.0529ZM16.4396 57.4914C16.0416 57.3517 15.8192 57.1304 15.6788 56.7577C14.7424 54.2653 14.3327 51.6913 14.2859 49.0475C14.2859 48.6398 14.3093 48.2206 14.7424 48.0109C15.1989 47.8013 15.55 48.0342 15.9011 48.337C18.7103 50.7013 21.4141 53.1821 23.8487 55.9308C24.1882 56.3151 24.551 56.4782 25.0426 56.4199C25.7566 56.3384 26.4706 56.2802 27.1846 56.2336C27.4772 56.2103 27.6996 56.0938 27.805 55.8492C27.9103 55.5814 27.6411 55.4532 27.5006 55.2902C24.4106 51.866 21.0864 48.6631 17.6101 45.6233C17.0482 45.1341 16.5683 44.5518 15.9714 44.1092C15.1403 43.4919 15.0818 42.7815 15.3627 41.8497C16.3225 38.74 17.3057 35.6303 18.1368 32.4973C18.8976 29.6322 19.4945 26.7205 20.15 23.8321C20.3256 23.0168 20.7352 22.5975 21.578 22.3529C25.1714 21.3513 28.8584 20.7806 32.4167 19.6625C35.6121 18.6609 38.7607 17.4729 42.0732 16.8323C46.2518 16.017 50.3953 16.0054 54.4686 17.4496C55.0421 17.6476 55.3698 17.9621 55.5688 18.5211C56.4467 20.9669 56.8681 23.4827 56.8564 26.0799C56.8564 26.5108 56.7744 26.8835 56.3648 27.0932C55.9083 27.3261 55.6156 27 55.3113 26.7438C52.5256 24.3911 49.8686 21.9103 47.4457 19.185C47.1062 18.8123 46.7551 18.6609 46.2401 18.754C45.6548 18.8589 45.0345 18.8356 44.4375 18.9171C44.1449 18.952 43.7586 18.8938 43.6182 19.2665C43.466 19.6625 43.8523 19.8023 44.0396 20.0352C47.3052 23.8204 51.0039 27.1631 54.7495 30.4591C55.9434 31.5073 56.236 32.4973 55.7327 33.9998C53.8833 39.5902 52.549 45.3088 51.3551 51.074C51.1327 52.1339 50.606 52.5881 49.5642 52.9026C46.3337 53.8343 42.9861 54.1837 39.7673 55.1271C36.6655 56.0356 33.6457 57.2469 30.4854 57.9806C28.1795 58.5047 25.862 58.8658 23.3922 58.8425C21.0396 58.9356 18.722 58.2951 16.4396 57.5147V57.4914ZM36.6772 67.4844C35.0503 67.9736 33.3648 68.1367 31.9134 68.2065C27.0324 68.1017 23.0996 66.343 19.7872 63.1402C19.4828 62.8373 19.12 62.5229 19.3892 62.0337C19.6584 61.5445 20.0915 61.5911 20.5831 61.661C23.2167 61.9755 25.862 61.8939 28.4721 61.463C28.9754 61.3815 29.3734 61.463 29.748 61.7658C31.89 63.4663 34.2192 64.8639 36.7709 65.8655C37.1922 66.0286 37.5668 66.2382 37.5317 66.774C37.4966 67.2981 37.0518 67.368 36.6772 67.4844ZM43.466 63.8157C43.1851 64.0486 42.9042 64.2117 42.5296 64.1534C39.7088 63.7691 37.0986 62.7791 34.6757 61.3116C34.3831 61.1369 34.1958 60.869 34.2777 60.5196C34.3714 60.1236 34.6874 59.9256 35.062 59.8092C37.9648 58.9356 40.8207 57.8874 43.7938 57.2702C44.976 57.0256 46.1347 56.746 47.3052 56.4782C47.7266 56.3733 48.1831 56.2452 48.5108 56.6412C48.8503 57.0489 48.6162 57.4332 48.3938 57.8176C47.0945 60.1003 45.4676 62.1152 43.466 63.8157ZM50.091 63.6526C49.892 63.6992 49.7047 63.7574 49.5057 63.7924C49.178 63.8506 48.862 63.8157 48.663 63.5129C48.464 63.1867 48.4874 62.849 48.7332 62.5578C50.5475 60.31 51.8701 57.7826 52.8884 55.1038C53.064 54.638 53.462 54.4982 53.8599 54.3468C55.7912 53.6014 57.6055 52.6347 59.3378 51.4933C59.7709 51.2021 59.9581 50.8877 59.9581 50.3752C59.9581 49.6881 60.0284 49.0125 60.005 48.3254C59.9933 47.7081 59.6889 47.58 59.1622 47.9294C58.1322 48.6049 57.0905 49.2688 56.0487 49.921C55.6625 50.1656 55.2411 50.4102 54.7846 50.0491C54.3632 49.723 54.5037 49.3037 54.5739 48.8728C55.2879 44.6683 56.4233 40.5802 57.7342 36.5388C57.8513 36.1777 57.98 35.84 58.4482 35.7817C58.9398 35.7235 59.1739 36.0147 59.3963 36.3757C61.4447 39.7184 62.4981 43.3405 62.5449 45.8446C62.5449 54.9524 57.4182 61.7192 50.091 63.6643V63.6526ZM65.6818 38.3673C65.5648 38.7866 65.3658 39.136 64.8976 39.1477C64.4879 39.1477 64.2421 38.8681 64.0899 38.4954C63.0131 35.9215 61.5617 33.5688 59.7592 31.4375C59.3963 31.0065 59.3963 30.5639 59.4782 30.0748C59.9113 27.4659 59.8762 24.8453 59.5017 22.2364C59.4314 21.7706 59.4431 21.3746 59.8996 21.13C60.3444 20.8971 60.6721 21.1649 60.9648 21.4445C63.8558 24.2397 65.635 27.6173 66.1734 31.6122C66.2319 32.0314 66.2787 32.4624 66.3022 32.8933C66.3256 33.2078 66.3022 33.5222 66.3022 33.8367C66.3022 35.3857 66.0915 36.8998 65.6701 38.3906L65.6818 38.3673Z" fill="white"/>
</mask>
<g mask="url(#mask0_2007_1667)">
<path d="M59.7476 20.8853H59.3965V39.1592H59.7476V20.8853Z" fill="#A3D4BB"/>
<path d="M60.2509 20.8853H59.7358V39.1592H60.2509V20.8853Z" fill="#A3D4BC"/>
<path d="M60.766 20.8853H60.251V39.1592H60.766V20.8853Z" fill="#A3D4BD"/>
<path d="M61.2806 20.8853H60.7656V39.1592H61.2806V20.8853Z" fill="#A3D4BE"/>
<path d="M61.7841 20.8853H61.269V39.1592H61.7841V20.8853Z" fill="#A2D4BF"/>
<path d="M62.2992 20.8853H61.7842V39.1592H62.2992V20.8853Z" fill="#A2D4C0"/>
<path d="M62.8026 20.8853H62.2876V39.1592H62.8026V20.8853Z" fill="#A2D4C1"/>
<path d="M63.3173 20.8853H62.8022V39.1592H63.3173V20.8853Z" fill="#A2D4C2"/>
<path d="M63.8324 20.8853H63.3174V39.1592H63.8324V20.8853Z" fill="#A1D4C3"/>
<path d="M64.3358 20.8853H63.8208V39.1592H64.3358V20.8853Z" fill="#A1D4C4"/>
<path d="M64.851 20.8853H64.3359V39.1592H64.851V20.8853Z" fill="#A1D4C5"/>
<path d="M65.3544 20.8853H64.8394V39.1592H65.3544V20.8853Z" fill="#A1D4C6"/>
<path d="M65.869 20.8853H65.354V39.1592H65.869V20.8853Z" fill="#A1D3C7"/>
<path d="M66.3373 20.8853H65.8691V39.1592H66.3373V20.8853Z" fill="#A0D3C8"/>
<path d="M48.5107 35.7119H48.4639V63.8507H48.5107V35.7119Z" fill="#A8D6A5"/>
<path d="M49.0258 35.7119H48.5107V63.8507H49.0258V35.7119Z" fill="#A8D6A6"/>
<path d="M49.5409 35.7119H49.0259V63.8507H49.5409V35.7119Z" fill="#A8D6A7"/>
<path d="M50.056 35.7119H49.541V63.8507H50.056V35.7119Z" fill="#A7D6A8"/>
<path d="M50.5594 35.7119H50.0444V63.8507H50.5594V35.7119Z" fill="#A7D6A9"/>
<path d="M51.0741 35.7119H50.5591V63.8507H51.0741V35.7119Z" fill="#A7D5AA"/>
<path d="M51.5775 35.7119H51.0625V63.8507H51.5775V35.7119Z" fill="#A7D5AB"/>
<path d="M52.0926 35.7119H51.5776V63.8507H52.0926V35.7119Z" fill="#A6D5AC"/>
<path d="M52.6078 35.7119H52.0928V63.8507H52.6078V35.7119Z" fill="#A6D5AD"/>
<path d="M53.1107 35.7119H52.5957V63.8507H53.1107V35.7119Z" fill="#A6D5AE"/>
<path d="M53.6259 35.7119H53.1108V63.8507H53.6259V35.7119Z" fill="#A6D5AF"/>
<path d="M54.1293 35.7119H53.6143V63.8507H54.1293V35.7119Z" fill="#A6D5B0"/>
<path d="M54.6444 35.7119H54.1294V63.8507H54.6444V35.7119Z" fill="#A5D5B1"/>
<path d="M55.1591 35.7119H54.644V63.8507H55.1591V35.7119Z" fill="#A5D5B2"/>
<path d="M55.6625 35.7119H55.1475V63.8507H55.6625V35.7119Z" fill="#A5D5B3"/>
<path d="M56.1776 35.7119H55.6626V63.8507H56.1776V35.7119Z" fill="#A5D5B4"/>
<path d="M56.681 35.7119H56.166V63.8507H56.681V35.7119Z" fill="#A4D5B5"/>
<path d="M57.1957 35.7119H56.6807V63.8507H57.1957V35.7119Z" fill="#A4D5B6"/>
<path d="M57.7108 35.7119H57.1958V63.8507H57.7108V35.7119Z" fill="#A4D5B7"/>
<path d="M58.2142 35.7119H57.6992V63.8507H58.2142V35.7119Z" fill="#A4D5B8"/>
<path d="M58.7294 35.7119H58.2144V63.8507H58.7294V35.7119Z" fill="#A4D4B9"/>
<path d="M59.2323 35.7119H58.7173V63.8507H59.2323V35.7119Z" fill="#A3D4BA"/>
<path d="M59.7474 35.7119H59.2324V63.8507H59.7474V35.7119Z" fill="#A3D4BB"/>
<path d="M60.2509 35.7119H59.7358V63.8507H60.2509V35.7119Z" fill="#A3D4BC"/>
<path d="M60.766 35.7119H60.251V63.8507H60.766V35.7119Z" fill="#A3D4BD"/>
<path d="M61.2806 35.7119H60.7656V63.8507H61.2806V35.7119Z" fill="#A3D4BE"/>
<path d="M61.7841 35.7119H61.269V63.8507H61.7841V35.7119Z" fill="#A2D4BF"/>
<path d="M62.2992 35.7119H61.7842V63.8507H62.2992V35.7119Z" fill="#A2D4C0"/>
<path d="M62.5451 35.7119H62.2876V63.8507H62.5451V35.7119Z" fill="#A2D4C1"/>
<path d="M34.2309 56.2451H34.1958V64.2116H34.2309V56.2451Z" fill="#AED888"/>
<path d="M34.746 56.2451H34.231V64.2116H34.746V56.2451Z" fill="#AED889"/>
<path d="M35.2611 56.2451H34.7461V64.2116H35.2611V56.2451Z" fill="#AED88A"/>
<path d="M35.7645 56.2451H35.2495V64.2116H35.7645V56.2451Z" fill="#AED88C"/>
<path d="M36.2792 56.2451H35.7642V64.2116H36.2792V56.2451Z" fill="#ADD78D"/>
<path d="M36.7826 56.2451H36.2676V64.2116H36.7826V56.2451Z" fill="#ADD78E"/>
<path d="M37.2977 56.2451H36.7827V64.2116H37.2977V56.2451Z" fill="#ADD78F"/>
<path d="M37.8011 56.2451H37.2861V64.2116H37.8011V56.2451Z" fill="#ADD790"/>
<path d="M38.3158 56.2451H37.8008V64.2116H38.3158V56.2451Z" fill="#ACD791"/>
<path d="M38.8309 56.2451H38.3159V64.2116H38.8309V56.2451Z" fill="#ACD792"/>
<path d="M39.3343 56.2451H38.8193V64.2116H39.3343V56.2451Z" fill="#ACD793"/>
<path d="M39.8495 56.2451H39.3345V64.2116H39.8495V56.2451Z" fill="#ACD794"/>
<path d="M40.3524 56.2451H39.8374V64.2116H40.3524V56.2451Z" fill="#ACD795"/>
<path d="M40.8676 56.2451H40.3525V64.2116H40.8676V56.2451Z" fill="#ABD796"/>
<path d="M41.3827 56.2451H40.8677V64.2116H41.3827V56.2451Z" fill="#ABD797"/>
<path d="M41.8861 56.2451H41.3711V64.2116H41.8861V56.2451Z" fill="#ABD798"/>
<path d="M42.4008 56.2451H41.8857V64.2116H42.4008V56.2451Z" fill="#ABD799"/>
<path d="M42.9042 56.2451H42.3892V64.2116H42.9042V56.2451Z" fill="#AAD79A"/>
<path d="M43.4193 56.2451H42.9043V64.2116H43.4193V56.2451Z" fill="#AAD69B"/>
<path d="M43.9344 56.2451H43.4194V64.2116H43.9344V56.2451Z" fill="#AAD69C"/>
<path d="M44.4374 56.2451H43.9224V64.2116H44.4374V56.2451Z" fill="#AAD69D"/>
<path d="M44.9525 56.2451H44.4375V64.2116H44.9525V56.2451Z" fill="#AAD69E"/>
<path d="M45.4559 56.2451H44.9409V64.2116H45.4559V56.2451Z" fill="#A9D69F"/>
<path d="M45.9711 56.2451H45.4561V64.2116H45.9711V56.2451Z" fill="#A9D6A0"/>
<path d="M46.4857 56.2451H45.9707V64.2116H46.4857V56.2451Z" fill="#A9D6A1"/>
<path d="M46.9891 56.2451H46.4741V64.2116H46.9891V56.2451Z" fill="#A9D6A2"/>
<path d="M47.5043 56.2451H46.9893V64.2116H47.5043V56.2451Z" fill="#A8D6A3"/>
<path d="M48.0077 56.2451H47.4927V64.2116H48.0077V56.2451Z" fill="#A8D6A4"/>
<path d="M48.5223 56.2451H48.0073V64.2116H48.5223V56.2451Z" fill="#A8D6A5"/>
<path d="M48.8385 56.2451H48.5107V64.2116H48.8385V56.2451Z" fill="#A8D6A6"/>
<path d="M19.4361 61.3696H19.1201V68.2063H19.4361V61.3696Z" fill="#B5DA6B"/>
<path d="M19.951 61.3696H19.436V68.2063H19.951V61.3696Z" fill="#B4DA6C"/>
<path d="M20.4545 61.3696H19.9395V68.2063H20.4545V61.3696Z" fill="#B4DA6D"/>
<path d="M20.9696 61.3696H20.4546V68.2063H20.9696V61.3696Z" fill="#B4D96E"/>
<path d="M21.4843 61.3696H20.9692V68.2063H21.4843V61.3696Z" fill="#B4D96F"/>
<path d="M21.9877 61.3696H21.4727V68.2063H21.9877V61.3696Z" fill="#B3D970"/>
<path d="M22.5028 61.3696H21.9878V68.2063H22.5028V61.3696Z" fill="#B3D971"/>
<path d="M23.0062 61.3696H22.4912V68.2063H23.0062V61.3696Z" fill="#B3D972"/>
<path d="M23.5209 61.3696H23.0059V68.2063H23.5209V61.3696Z" fill="#B3D973"/>
<path d="M24.036 61.3696H23.521V68.2063H24.036V61.3696Z" fill="#B3D974"/>
<path d="M24.5394 61.3696H24.0244V68.2063H24.5394V61.3696Z" fill="#B2D975"/>
<path d="M25.0546 61.3696H24.5396V68.2063H25.0546V61.3696Z" fill="#B2D976"/>
<path d="M25.5575 61.3696H25.0425V68.2063H25.5575V61.3696Z" fill="#B2D977"/>
<path d="M26.0726 61.3696H25.5576V68.2063H26.0726V61.3696Z" fill="#B2D978"/>
<path d="M26.576 61.3696H26.061V68.2063H26.576V61.3696Z" fill="#B1D979"/>
<path d="M27.0912 61.3696H26.5762V68.2063H27.0912V61.3696Z" fill="#B1D97A"/>
<path d="M27.6058 61.3696H27.0908V68.2063H27.6058V61.3696Z" fill="#B1D97B"/>
<path d="M28.1093 61.3696H27.5942V68.2063H28.1093V61.3696Z" fill="#B1D97C"/>
<path d="M28.6244 61.3696H28.1094V68.2063H28.6244V61.3696Z" fill="#B1D87D"/>
<path d="M29.1278 61.3696H28.6128V68.2063H29.1278V61.3696Z" fill="#B0D87E"/>
<path d="M29.6425 61.3696H29.1274V68.2063H29.6425V61.3696Z" fill="#B0D87F"/>
<path d="M30.1576 61.3696H29.6426V68.2063H30.1576V61.3696Z" fill="#B0D880"/>
<path d="M30.661 61.3696H30.146V68.2063H30.661V61.3696Z" fill="#B0D881"/>
<path d="M31.1761 61.3696H30.6611V68.2063H31.1761V61.3696Z" fill="#AFD882"/>
<path d="M31.6791 61.3696H31.1641V68.2063H31.6791V61.3696Z" fill="#AFD883"/>
<path d="M32.1942 61.3696H31.6792V68.2063H32.1942V61.3696Z" fill="#AFD884"/>
<path d="M32.7093 61.3696H32.1943V68.2063H32.7093V61.3696Z" fill="#AFD885"/>
<path d="M33.2128 61.3696H32.6978V68.2063H33.2128V61.3696Z" fill="#AFD886"/>
<path d="M33.7274 61.3696H33.2124V68.2063H33.7274V61.3696Z" fill="#AED887"/>
<path d="M34.2308 61.3696H33.7158V68.2063H34.2308V61.3696Z" fill="#AED888"/>
<path d="M34.746 61.3696H34.231V68.2063H34.746V61.3696Z" fill="#AED889"/>
<path d="M35.2611 61.3696H34.7461V68.2063H35.2611V61.3696Z" fill="#AED88A"/>
<path d="M35.7645 61.3696H35.2495V68.2063H35.7645V61.3696Z" fill="#AED88C"/>
<path d="M36.2792 61.3696H35.7642V68.2063H36.2792V61.3696Z" fill="#ADD78D"/>
<path d="M36.7826 61.3696H36.2676V68.2063H36.7826V61.3696Z" fill="#ADD78E"/>
<path d="M37.2977 61.3696H36.7827V68.2063H37.2977V61.3696Z" fill="#ADD78F"/>
<path d="M37.567 61.3696H37.2861V68.2063H37.567V61.3696Z" fill="#ADD790"/>
<path d="M14.3329 16.0054H14.2744V58.9123H14.3329V16.0054Z" fill="#B7DA61"/>
<path d="M14.8475 16.0054H14.3325V58.9123H14.8475V16.0054Z" fill="#B7DA62"/>
<path d="M15.3509 16.0054H14.8359V58.9123H15.3509V16.0054Z" fill="#B6DA63"/>
<path d="M15.8661 16.0054H15.3511V58.9123H15.8661V16.0054Z" fill="#B6DA64"/>
<path d="M16.3812 16.0054H15.8662V58.9123H16.3812V16.0054Z" fill="#B6DA65"/>
<path d="M16.8842 16.0054H16.3691V58.9123H16.8842V16.0054Z" fill="#B6DA66"/>
<path d="M17.3993 16.0054H16.8843V58.9123H17.3993V16.0054Z" fill="#B5DA67"/>
<path d="M17.9027 16.0054H17.3877V58.9123H17.9027V16.0054Z" fill="#B5DA68"/>
<path d="M18.4178 16.0054H17.9028V58.9123H18.4178V16.0054Z" fill="#B5DA69"/>
<path d="M18.933 16.0054H18.418V58.9123H18.933V16.0054Z" fill="#B5DA6A"/>
<path d="M19.4359 16.0054H18.9209V58.9123H19.4359V16.0054Z" fill="#B5DA6B"/>
<path d="M19.951 16.0054H19.436V58.9123H19.951V16.0054Z" fill="#B4DA6C"/>
<path d="M20.4545 16.0054H19.9395V58.9123H20.4545V16.0054Z" fill="#B4DA6D"/>
<path d="M20.9696 16.0054H20.4546V58.9123H20.9696V16.0054Z" fill="#B4D96E"/>
<path d="M21.4843 16.0054H20.9692V58.9123H21.4843V16.0054Z" fill="#B4D96F"/>
<path d="M21.9877 16.0054H21.4727V58.9123H21.9877V16.0054Z" fill="#B3D970"/>
<path d="M22.5028 16.0054H21.9878V58.9123H22.5028V16.0054Z" fill="#B3D971"/>
<path d="M23.0062 16.0054H22.4912V58.9123H23.0062V16.0054Z" fill="#B3D972"/>
<path d="M23.5209 16.0054H23.0059V58.9123H23.5209V16.0054Z" fill="#B3D973"/>
<path d="M24.036 16.0054H23.521V58.9123H24.036V16.0054Z" fill="#B3D974"/>
<path d="M24.5394 16.0054H24.0244V58.9123H24.5394V16.0054Z" fill="#B2D975"/>
<path d="M25.0546 16.0054H24.5396V58.9123H25.0546V16.0054Z" fill="#B2D976"/>
<path d="M25.5575 16.0054H25.0425V58.9123H25.5575V16.0054Z" fill="#B2D977"/>
<path d="M26.0726 16.0054H25.5576V58.9123H26.0726V16.0054Z" fill="#B2D978"/>
<path d="M26.576 16.0054H26.061V58.9123H26.576V16.0054Z" fill="#B1D979"/>
<path d="M27.0912 16.0054H26.5762V58.9123H27.0912V16.0054Z" fill="#B1D97A"/>
<path d="M27.6058 16.0054H27.0908V58.9123H27.6058V16.0054Z" fill="#B1D97B"/>
<path d="M28.1093 16.0054H27.5942V58.9123H28.1093V16.0054Z" fill="#B1D97C"/>
<path d="M28.6244 16.0054H28.1094V58.9123H28.6244V16.0054Z" fill="#B1D87D"/>
<path d="M29.1278 16.0054H28.6128V58.9123H29.1278V16.0054Z" fill="#B0D87E"/>
<path d="M29.6425 16.0054H29.1274V58.9123H29.6425V16.0054Z" fill="#B0D87F"/>
<path d="M30.1576 16.0054H29.6426V58.9123H30.1576V16.0054Z" fill="#B0D880"/>
<path d="M30.661 16.0054H30.146V58.9123H30.661V16.0054Z" fill="#B0D881"/>
<path d="M31.1761 16.0054H30.6611V58.9123H31.1761V16.0054Z" fill="#AFD882"/>
<path d="M31.6791 16.0054H31.1641V58.9123H31.6791V16.0054Z" fill="#AFD883"/>
<path d="M32.1942 16.0054H31.6792V58.9123H32.1942V16.0054Z" fill="#AFD884"/>
<path d="M32.7093 16.0054H32.1943V58.9123H32.7093V16.0054Z" fill="#AFD885"/>
<path d="M33.2128 16.0054H32.6978V58.9123H33.2128V16.0054Z" fill="#AFD886"/>
<path d="M33.7274 16.0054H33.2124V58.9123H33.7274V16.0054Z" fill="#AED887"/>
<path d="M34.2308 16.0054H33.7158V58.9123H34.2308V16.0054Z" fill="#AED888"/>
<path d="M34.746 16.0054H34.231V58.9123H34.746V16.0054Z" fill="#AED889"/>
<path d="M35.2611 16.0054H34.7461V58.9123H35.2611V16.0054Z" fill="#AED88A"/>
<path d="M35.7645 16.0054H35.2495V58.9123H35.7645V16.0054Z" fill="#AED88C"/>
<path d="M36.2792 16.0054H35.7642V58.9123H36.2792V16.0054Z" fill="#ADD78D"/>
<path d="M36.7826 16.0054H36.2676V58.9123H36.7826V16.0054Z" fill="#ADD78E"/>
<path d="M37.2977 16.0054H36.7827V58.9123H37.2977V16.0054Z" fill="#ADD78F"/>
<path d="M37.8011 16.0054H37.2861V58.9123H37.8011V16.0054Z" fill="#ADD790"/>
<path d="M38.3158 16.0054H37.8008V58.9123H38.3158V16.0054Z" fill="#ACD791"/>
<path d="M38.8309 16.0054H38.3159V58.9123H38.8309V16.0054Z" fill="#ACD792"/>
<path d="M39.3343 16.0054H38.8193V58.9123H39.3343V16.0054Z" fill="#ACD793"/>
<path d="M39.8495 16.0054H39.3345V58.9123H39.8495V16.0054Z" fill="#ACD794"/>
<path d="M40.3524 16.0054H39.8374V58.9123H40.3524V16.0054Z" fill="#ACD795"/>
<path d="M40.8676 16.0054H40.3525V58.9123H40.8676V16.0054Z" fill="#ABD796"/>
<path d="M41.3827 16.0054H40.8677V58.9123H41.3827V16.0054Z" fill="#ABD797"/>
<path d="M41.8861 16.0054H41.3711V58.9123H41.8861V16.0054Z" fill="#ABD798"/>
<path d="M42.4008 16.0054H41.8857V58.9123H42.4008V16.0054Z" fill="#ABD799"/>
<path d="M42.9042 16.0054H42.3892V58.9123H42.9042V16.0054Z" fill="#AAD79A"/>
<path d="M43.4193 16.0054H42.9043V58.9123H43.4193V16.0054Z" fill="#AAD69B"/>
<path d="M43.9344 16.0054H43.4194V58.9123H43.9344V16.0054Z" fill="#AAD69C"/>
<path d="M44.4374 16.0054H43.9224V58.9123H44.4374V16.0054Z" fill="#AAD69D"/>
<path d="M44.9525 16.0054H44.4375V58.9123H44.9525V16.0054Z" fill="#AAD69E"/>
<path d="M45.4559 16.0054H44.9409V58.9123H45.4559V16.0054Z" fill="#A9D69F"/>
<path d="M45.9711 16.0054H45.4561V58.9123H45.9711V16.0054Z" fill="#A9D6A0"/>
<path d="M46.4857 16.0054H45.9707V58.9123H46.4857V16.0054Z" fill="#A9D6A1"/>
<path d="M46.9891 16.0054H46.4741V58.9123H46.9891V16.0054Z" fill="#A9D6A2"/>
<path d="M47.5043 16.0054H46.9893V58.9123H47.5043V16.0054Z" fill="#A8D6A3"/>
<path d="M48.0077 16.0054H47.4927V58.9123H48.0077V16.0054Z" fill="#A8D6A4"/>
<path d="M48.5223 16.0054H48.0073V58.9123H48.5223V16.0054Z" fill="#A8D6A5"/>
<path d="M49.0258 16.0054H48.5107V58.9123H49.0258V16.0054Z" fill="#A8D6A6"/>
<path d="M49.5409 16.0054H49.0259V58.9123H49.5409V16.0054Z" fill="#A8D6A7"/>
<path d="M50.056 16.0054H49.541V58.9123H50.056V16.0054Z" fill="#A7D6A8"/>
<path d="M50.5594 16.0054H50.0444V58.9123H50.5594V16.0054Z" fill="#A7D6A9"/>
<path d="M51.0741 16.0054H50.5591V58.9123H51.0741V16.0054Z" fill="#A7D5AA"/>
<path d="M51.5775 16.0054H51.0625V58.9123H51.5775V16.0054Z" fill="#A7D5AB"/>
<path d="M52.0926 16.0054H51.5776V58.9123H52.0926V16.0054Z" fill="#A6D5AC"/>
<path d="M52.6078 16.0054H52.0928V58.9123H52.6078V16.0054Z" fill="#A6D5AD"/>
<path d="M53.1107 16.0054H52.5957V58.9123H53.1107V16.0054Z" fill="#A6D5AE"/>
<path d="M53.6259 16.0054H53.1108V58.9123H53.6259V16.0054Z" fill="#A6D5AF"/>
<path d="M54.1293 16.0054H53.6143V58.9123H54.1293V16.0054Z" fill="#A6D5B0"/>
<path d="M54.6444 16.0054H54.1294V58.9123H54.6444V16.0054Z" fill="#A5D5B1"/>
<path d="M55.1591 16.0054H54.644V58.9123H55.1591V16.0054Z" fill="#A5D5B2"/>
<path d="M55.6625 16.0054H55.1475V58.9123H55.6625V16.0054Z" fill="#A5D5B3"/>
<path d="M56.1776 16.0054H55.6626V58.9123H56.1776V16.0054Z" fill="#A5D5B4"/>
<path d="M56.681 16.0054H56.166V58.9123H56.681V16.0054Z" fill="#A4D5B5"/>
<path d="M56.8796 16.0054H56.6807V58.9123H56.8796V16.0054Z" fill="#A4D5B6"/>
<path d="M8.21088 10.9155H8.16406V39.3804H8.21088V10.9155Z" fill="#B9DB55"/>
<path d="M8.72595 10.9155H8.21094V39.3804H8.72595V10.9155Z" fill="#B9DB56"/>
<path d="M9.22937 10.9155H8.71436V39.3804H9.22937V10.9155Z" fill="#B9DB57"/>
<path d="M9.7445 10.9155H9.22949V39.3804H9.7445V10.9155Z" fill="#B9DB58"/>
<path d="M10.2596 10.9155H9.74463V39.3804H10.2596V10.9155Z" fill="#B8DB59"/>
<path d="M10.7626 10.9155H10.2476V39.3804H10.7626V10.9155Z" fill="#B8DB5A"/>
<path d="M11.2777 10.9155H10.7627V39.3804H11.2777V10.9155Z" fill="#B8DB5B"/>
<path d="M11.7811 10.9155H11.2661V39.3804H11.7811V10.9155Z" fill="#B8DB5C"/>
<path d="M12.2963 10.9155H11.7812V39.3804H12.2963V10.9155Z" fill="#B8DB5D"/>
<path d="M12.8109 10.9155H12.2959V39.3804H12.8109V10.9155Z" fill="#B7DB5E"/>
<path d="M13.3143 10.9155H12.7993V39.3804H13.3143V10.9155Z" fill="#B7DB5F"/>
<path d="M13.8295 10.9155H13.3145V39.3804H13.8295V10.9155Z" fill="#B7DA60"/>
<path d="M14.3329 10.9155H13.8179V39.3804H14.3329V10.9155Z" fill="#B7DA61"/>
<path d="M14.8475 10.9155H14.3325V39.3804H14.8475V10.9155Z" fill="#B7DA62"/>
<path d="M15.3509 10.9155H14.8359V39.3804H15.3509V10.9155Z" fill="#B6DA63"/>
<path d="M15.8661 10.9155H15.3511V39.3804H15.8661V10.9155Z" fill="#B6DA64"/>
<path d="M16.3812 10.9155H15.8662V39.3804H16.3812V10.9155Z" fill="#B6DA65"/>
<path d="M16.8842 10.9155H16.3691V39.3804H16.8842V10.9155Z" fill="#B6DA66"/>
<path d="M17.3993 10.9155H16.8843V39.3804H17.3993V10.9155Z" fill="#B5DA67"/>
<path d="M17.9027 10.9155H17.3877V39.3804H17.9027V10.9155Z" fill="#B5DA68"/>
<path d="M18.4178 10.9155H17.9028V39.3804H18.4178V10.9155Z" fill="#B5DA69"/>
<path d="M18.933 10.9155H18.418V39.3804H18.933V10.9155Z" fill="#B5DA6A"/>
<path d="M19.4359 10.9155H18.9209V39.3804H19.4359V10.9155Z" fill="#B5DA6B"/>
<path d="M19.951 10.9155H19.436V39.3804H19.951V10.9155Z" fill="#B4DA6C"/>
<path d="M20.4545 10.9155H19.9395V39.3804H20.4545V10.9155Z" fill="#B4DA6D"/>
<path d="M20.9696 10.9155H20.4546V39.3804H20.9696V10.9155Z" fill="#B4D96E"/>
<path d="M21.4843 10.9155H20.9692V39.3804H21.4843V10.9155Z" fill="#B4D96F"/>
<path d="M21.9877 10.9155H21.4727V39.3804H21.9877V10.9155Z" fill="#B3D970"/>
<path d="M22.3975 10.9155H21.9878V39.3804H22.3975V10.9155Z" fill="#B3D971"/>
<path d="M4.64132 35.8979H4.40723V54.1253H4.64132V35.8979Z" fill="#BBDC4E"/>
<path d="M5.15613 35.8979H4.64111V54.1253H5.15613V35.8979Z" fill="#BBDC4F"/>
<path d="M5.65954 35.8979H5.14453V54.1253H5.65954V35.8979Z" fill="#BADC50"/>
<path d="M6.17468 35.8979H5.65967V54.1253H6.17468V35.8979Z" fill="#BADB51"/>
<path d="M6.67761 35.8979H6.1626V54.1253H6.67761V35.8979Z" fill="#BADB52"/>
<path d="M7.19275 35.8979H6.67773V54.1253H7.19275V35.8979Z" fill="#BADB53"/>
<path d="M7.70788 35.8979H7.19287V54.1253H7.70788V35.8979Z" fill="#BADB54"/>
<path d="M8.2113 35.8979H7.69629V54.1253H8.2113V35.8979Z" fill="#B9DB55"/>
<path d="M8.72595 35.8979H8.21094V54.1253H8.72595V35.8979Z" fill="#B9DB56"/>
<path d="M9.22937 35.8979H8.71436V54.1253H9.22937V35.8979Z" fill="#B9DB57"/>
<path d="M9.7445 35.8979H9.22949V54.1253H9.7445V35.8979Z" fill="#B9DB58"/>
<path d="M10.2596 35.8979H9.74463V54.1253H10.2596V35.8979Z" fill="#B8DB59"/>
<path d="M10.7626 35.8979H10.2476V54.1253H10.7626V35.8979Z" fill="#B8DB5A"/>
<path d="M11.2777 35.8979H10.7627V54.1253H11.2777V35.8979Z" fill="#B8DB5B"/>
<path d="M11.629 35.8979H11.2661V54.1253H11.629V35.8979Z" fill="#B8DB5C"/>
<path d="M22.4908 10.7876H22.1514V18.6376H22.4908V10.7876Z" fill="#B3D971"/>
<path d="M23.0062 10.7876H22.4912V18.6376H23.0062V10.7876Z" fill="#B3D972"/>
<path d="M23.5209 10.7876H23.0059V18.6376H23.5209V10.7876Z" fill="#B3D973"/>
<path d="M24.036 10.7876H23.521V18.6376H24.036V10.7876Z" fill="#B3D974"/>
<path d="M24.5394 10.7876H24.0244V18.6376H24.5394V10.7876Z" fill="#B2D975"/>
<path d="M25.0546 10.7876H24.5396V18.6376H25.0546V10.7876Z" fill="#B2D976"/>
<path d="M25.5575 10.7876H25.0425V18.6376H25.5575V10.7876Z" fill="#B2D977"/>
<path d="M26.0726 10.7876H25.5576V18.6376H26.0726V10.7876Z" fill="#B2D978"/>
<path d="M26.576 10.7876H26.061V18.6376H26.576V10.7876Z" fill="#B1D979"/>
<path d="M27.0912 10.7876H26.5762V18.6376H27.0912V10.7876Z" fill="#B1D97A"/>
<path d="M27.6058 10.7876H27.0908V18.6376H27.6058V10.7876Z" fill="#B1D97B"/>
<path d="M28.1093 10.7876H27.5942V18.6376H28.1093V10.7876Z" fill="#B1D97C"/>
<path d="M28.6244 10.7876H28.1094V18.6376H28.6244V10.7876Z" fill="#B1D87D"/>
<path d="M29.1278 10.7876H28.6128V18.6376H29.1278V10.7876Z" fill="#B0D87E"/>
<path d="M29.6425 10.7876H29.1274V18.6376H29.6425V10.7876Z" fill="#B0D87F"/>
<path d="M30.1576 10.7876H29.6426V18.6376H30.1576V10.7876Z" fill="#B0D880"/>
<path d="M30.661 10.7876H30.146V18.6376H30.661V10.7876Z" fill="#B0D881"/>
<path d="M31.1761 10.7876H30.6611V18.6376H31.1761V10.7876Z" fill="#AFD882"/>
<path d="M31.6791 10.7876H31.1641V18.6376H31.6791V10.7876Z" fill="#AFD883"/>
<path d="M32.1942 10.7876H31.6792V18.6376H32.1942V10.7876Z" fill="#AFD884"/>
<path d="M32.7093 10.7876H32.1943V18.6376H32.7093V10.7876Z" fill="#AFD885"/>
<path d="M33.2128 10.7876H32.6978V18.6376H33.2128V10.7876Z" fill="#AFD886"/>
<path d="M33.7274 10.7876H33.2124V18.6376H33.7274V10.7876Z" fill="#AED887"/>
<path d="M34.2308 10.7876H33.7158V18.6376H34.2308V10.7876Z" fill="#AED888"/>
<path d="M34.746 10.7876H34.231V18.6376H34.746V10.7876Z" fill="#AED889"/>
<path d="M35.2611 10.7876H34.7461V18.6376H35.2611V10.7876Z" fill="#AED88A"/>
<path d="M35.7645 10.7876H35.2495V18.6376H35.7645V10.7876Z" fill="#AED88C"/>
<path d="M36.2792 10.7876H35.7642V18.6376H36.2792V10.7876Z" fill="#ADD78D"/>
<path d="M36.7358 10.7876H36.2676V18.6376H36.7358V10.7876Z" fill="#ADD78E"/>
<path d="M33.7158 6.50146H33.3062V13.7109H33.7158V6.50146Z" fill="#AED887"/>
<path d="M34.2308 6.50146H33.7158V13.7109H34.2308V6.50146Z" fill="#AED888"/>
<path d="M34.746 6.50146H34.231V13.7109H34.746V6.50146Z" fill="#AED889"/>
<path d="M35.2611 6.50146H34.7461V13.7109H35.2611V6.50146Z" fill="#AED88A"/>
<path d="M35.7645 6.50146H35.2495V13.7109H35.7645V6.50146Z" fill="#AED88C"/>
<path d="M36.2792 6.50146H35.7642V13.7109H36.2792V6.50146Z" fill="#ADD78D"/>
<path d="M36.7826 6.50146H36.2676V13.7109H36.7826V6.50146Z" fill="#ADD78E"/>
<path d="M37.2977 6.50146H36.7827V13.7109H37.2977V6.50146Z" fill="#ADD78F"/>
<path d="M37.8011 6.50146H37.2861V13.7109H37.8011V6.50146Z" fill="#ADD790"/>
<path d="M38.3158 6.50146H37.8008V13.7109H38.3158V6.50146Z" fill="#ACD791"/>
<path d="M38.8309 6.50146H38.3159V13.7109H38.8309V6.50146Z" fill="#ACD792"/>
<path d="M39.3343 6.50146H38.8193V13.7109H39.3343V6.50146Z" fill="#ACD793"/>
<path d="M39.8495 6.50146H39.3345V13.7109H39.8495V6.50146Z" fill="#ACD794"/>
<path d="M40.3524 6.50146H39.8374V13.7109H40.3524V6.50146Z" fill="#ACD795"/>
<path d="M40.8676 6.50146H40.3525V13.7109H40.8676V6.50146Z" fill="#ABD796"/>
<path d="M41.3827 6.50146H40.8677V13.7109H41.3827V6.50146Z" fill="#ABD797"/>
<path d="M41.8861 6.50146H41.3711V13.7109H41.8861V6.50146Z" fill="#ABD798"/>
<path d="M42.4008 6.50146H41.8857V13.7109H42.4008V6.50146Z" fill="#ABD799"/>
<path d="M42.9042 6.50146H42.3892V13.7109H42.9042V6.50146Z" fill="#AAD79A"/>
<path d="M43.4193 6.50146H42.9043V13.7109H43.4193V6.50146Z" fill="#AAD69B"/>
<path d="M43.9344 6.50146H43.4194V13.7109H43.9344V6.50146Z" fill="#AAD69C"/>
<path d="M44.4374 6.50146H43.9224V13.7109H44.4374V6.50146Z" fill="#AAD69D"/>
<path d="M44.9525 6.50146H44.4375V13.7109H44.9525V6.50146Z" fill="#AAD69E"/>
<path d="M45.4559 6.50146H44.9409V13.7109H45.4559V6.50146Z" fill="#A9D69F"/>
<path d="M45.9711 6.50146H45.4561V13.7109H45.9711V6.50146Z" fill="#A9D6A0"/>
<path d="M46.4857 6.50146H45.9707V13.7109H46.4857V6.50146Z" fill="#A9D6A1"/>
<path d="M46.9891 6.50146H46.4741V13.7109H46.9891V6.50146Z" fill="#A9D6A2"/>
<path d="M47.5043 6.50146H46.9893V13.7109H47.5043V6.50146Z" fill="#A8D6A3"/>
<path d="M48.0077 6.50146H47.4927V13.7109H48.0077V6.50146Z" fill="#A8D6A4"/>
<path d="M48.5223 6.50146H48.0073V13.7109H48.5223V6.50146Z" fill="#A8D6A5"/>
<path d="M49.0258 6.50146H48.5107V13.7109H49.0258V6.50146Z" fill="#A8D6A6"/>
<path d="M49.5409 6.50146H49.0259V13.7109H49.5409V6.50146Z" fill="#A8D6A7"/>
<path d="M50.056 6.50146H49.541V13.7109H50.056V6.50146Z" fill="#A7D6A8"/>
<path d="M50.5594 6.50146H50.0444V13.7109H50.5594V6.50146Z" fill="#A7D6A9"/>
<path d="M51.0741 6.50146H50.5591V13.7109H51.0741V6.50146Z" fill="#A7D5AA"/>
<path d="M51.5775 6.50146H51.0625V13.7109H51.5775V6.50146Z" fill="#A7D5AB"/>
<path d="M51.8937 6.50146H51.5776V13.7109H51.8937V6.50146Z" fill="#A6D5AC"/>
<path d="M1.57447 0.573242H0.96582V74.2512H1.57447V0.573242Z" fill="#BCDC49"/>
<path d="M2.08972 0.573242H1.57471V74.2512H2.08972V0.573242Z" fill="#BCDC49"/>
<path d="M2.60437 0.573242H2.08936V74.2512H2.60437V0.573242Z" fill="#BCDC4A"/>
<path d="M3.10779 0.573242H2.59277V74.2512H3.10779V0.573242Z" fill="#BCDC4B"/>
<path d="M3.62292 0.573242H3.10791V74.2512H3.62292V0.573242Z" fill="#BBDC4C"/>
<path d="M4.12634 0.573242H3.61133V74.2512H4.12634V0.573242Z" fill="#BBDC4D"/>
<path d="M4.64099 0.573242H4.12598V74.2512H4.64099V0.573242Z" fill="#BBDC4E"/>
<path d="M5.15613 0.573242H4.64111V74.2512H5.15613V0.573242Z" fill="#BBDC4F"/>
<path d="M5.65954 0.573242H5.14453V74.2512H5.65954V0.573242Z" fill="#BADC50"/>
<path d="M6.17468 0.573242H5.65967V74.2512H6.17468V0.573242Z" fill="#BADB51"/>
<path d="M6.67761 0.573242H6.1626V74.2512H6.67761V0.573242Z" fill="#BADB52"/>
<path d="M7.19275 0.573242H6.67773V74.2512H7.19275V0.573242Z" fill="#BADB53"/>
<path d="M7.70788 0.573242H7.19287V74.2512H7.70788V0.573242Z" fill="#BADB54"/>
<path d="M8.2113 0.573242H7.69629V74.2512H8.2113V0.573242Z" fill="#B9DB55"/>
<path d="M8.72595 0.573242H8.21094V74.2512H8.72595V0.573242Z" fill="#B9DB56"/>
<path d="M9.22937 0.573242H8.71436V74.2512H9.22937V0.573242Z" fill="#B9DB57"/>
<path d="M9.7445 0.573242H9.22949V74.2512H9.7445V0.573242Z" fill="#B9DB58"/>
<path d="M10.2596 0.573242H9.74463V74.2512H10.2596V0.573242Z" fill="#B8DB59"/>
<path d="M10.7626 0.573242H10.2476V74.2512H10.7626V0.573242Z" fill="#B8DB5A"/>
<path d="M11.2777 0.573242H10.7627V74.2512H11.2777V0.573242Z" fill="#B8DB5B"/>
<path d="M11.7811 0.573242H11.2661V74.2512H11.7811V0.573242Z" fill="#B8DB5C"/>
<path d="M12.2963 0.573242H11.7812V74.2512H12.2963V0.573242Z" fill="#B8DB5D"/>
<path d="M12.8109 0.573242H12.2959V74.2512H12.8109V0.573242Z" fill="#B7DB5E"/>
<path d="M13.3143 0.573242H12.7993V74.2512H13.3143V0.573242Z" fill="#B7DB5F"/>
<path d="M13.8295 0.573242H13.3145V74.2512H13.8295V0.573242Z" fill="#B7DA60"/>
<path d="M14.3329 0.573242H13.8179V74.2512H14.3329V0.573242Z" fill="#B7DA61"/>
<path d="M14.8475 0.573242H14.3325V74.2512H14.8475V0.573242Z" fill="#B7DA62"/>
<path d="M15.3509 0.573242H14.8359V74.2512H15.3509V0.573242Z" fill="#B6DA63"/>
<path d="M15.8661 0.573242H15.3511V74.2512H15.8661V0.573242Z" fill="#B6DA64"/>
<path d="M16.3812 0.573242H15.8662V74.2512H16.3812V0.573242Z" fill="#B6DA65"/>
<path d="M16.8842 0.573242H16.3691V74.2512H16.8842V0.573242Z" fill="#B6DA66"/>
<path d="M17.3993 0.573242H16.8843V74.2512H17.3993V0.573242Z" fill="#B5DA67"/>
<path d="M17.9027 0.573242H17.3877V74.2512H17.9027V0.573242Z" fill="#B5DA68"/>
<path d="M18.4178 0.573242H17.9028V74.2512H18.4178V0.573242Z" fill="#B5DA69"/>
<path d="M18.933 0.573242H18.418V74.2512H18.933V0.573242Z" fill="#B5DA6A"/>
<path d="M19.4359 0.573242H18.9209V74.2512H19.4359V0.573242Z" fill="#B5DA6B"/>
<path d="M19.951 0.573242H19.436V74.2512H19.951V0.573242Z" fill="#B4DA6C"/>
<path d="M20.4545 0.573242H19.9395V74.2512H20.4545V0.573242Z" fill="#B4DA6D"/>
<path d="M20.9696 0.573242H20.4546V74.2512H20.9696V0.573242Z" fill="#B4D96E"/>
<path d="M21.4843 0.573242H20.9692V74.2512H21.4843V0.573242Z" fill="#B4D96F"/>
<path d="M21.9877 0.573242H21.4727V74.2512H21.9877V0.573242Z" fill="#B3D970"/>
<path d="M22.5028 0.573242H21.9878V74.2512H22.5028V0.573242Z" fill="#B3D971"/>
<path d="M23.0062 0.573242H22.4912V74.2512H23.0062V0.573242Z" fill="#B3D972"/>
<path d="M23.5209 0.573242H23.0059V74.2512H23.5209V0.573242Z" fill="#B3D973"/>
<path d="M24.036 0.573242H23.521V74.2512H24.036V0.573242Z" fill="#B3D974"/>
<path d="M24.5394 0.573242H24.0244V74.2512H24.5394V0.573242Z" fill="#B2D975"/>
<path d="M25.0546 0.573242H24.5396V74.2512H25.0546V0.573242Z" fill="#B2D976"/>
<path d="M25.5575 0.573242H25.0425V74.2512H25.5575V0.573242Z" fill="#B2D977"/>
<path d="M26.0726 0.573242H25.5576V74.2512H26.0726V0.573242Z" fill="#B2D978"/>
<path d="M26.576 0.573242H26.061V74.2512H26.576V0.573242Z" fill="#B1D979"/>
<path d="M27.0912 0.573242H26.5762V74.2512H27.0912V0.573242Z" fill="#B1D97A"/>
<path d="M27.6058 0.573242H27.0908V74.2512H27.6058V0.573242Z" fill="#B1D97B"/>
<path d="M28.1093 0.573242H27.5942V74.2512H28.1093V0.573242Z" fill="#B1D97C"/>
<path d="M28.6244 0.573242H28.1094V74.2512H28.6244V0.573242Z" fill="#B1D87D"/>
<path d="M29.1278 0.573242H28.6128V74.2512H29.1278V0.573242Z" fill="#B0D87E"/>
<path d="M29.6425 0.573242H29.1274V74.2512H29.6425V0.573242Z" fill="#B0D87F"/>
<path d="M30.1576 0.573242H29.6426V74.2512H30.1576V0.573242Z" fill="#B0D880"/>
<path d="M30.661 0.573242H30.146V74.2512H30.661V0.573242Z" fill="#B0D881"/>
<path d="M31.1761 0.573242H30.6611V74.2512H31.1761V0.573242Z" fill="#AFD882"/>
<path d="M31.6791 0.573242H31.1641V74.2512H31.6791V0.573242Z" fill="#AFD883"/>
<path d="M32.1942 0.573242H31.6792V74.2512H32.1942V0.573242Z" fill="#AFD884"/>
<path d="M32.7093 0.573242H32.1943V74.2512H32.7093V0.573242Z" fill="#AFD885"/>
<path d="M33.2128 0.573242H32.6978V74.2512H33.2128V0.573242Z" fill="#AFD886"/>
<path d="M33.7274 0.573242H33.2124V74.2512H33.7274V0.573242Z" fill="#AED887"/>
<path d="M34.2308 0.573242H33.7158V74.2512H34.2308V0.573242Z" fill="#AED888"/>
<path d="M34.746 0.573242H34.231V74.2512H34.746V0.573242Z" fill="#AED889"/>
<path d="M35.2611 0.573242H34.7461V74.2512H35.2611V0.573242Z" fill="#AED88A"/>
<path d="M35.7645 0.573242H35.2495V74.2512H35.7645V0.573242Z" fill="#AED88C"/>
<path d="M36.2792 0.573242H35.7642V74.2512H36.2792V0.573242Z" fill="#ADD78D"/>
<path d="M36.7826 0.573242H36.2676V74.2512H36.7826V0.573242Z" fill="#ADD78E"/>
<path d="M37.2977 0.573242H36.7827V74.2512H37.2977V0.573242Z" fill="#ADD78F"/>
<path d="M37.8011 0.573242H37.2861V74.2512H37.8011V0.573242Z" fill="#ADD790"/>
<path d="M38.3158 0.573242H37.8008V74.2512H38.3158V0.573242Z" fill="#ACD791"/>
<path d="M38.8309 0.573242H38.3159V74.2512H38.8309V0.573242Z" fill="#ACD792"/>
<path d="M39.3343 0.573242H38.8193V74.2512H39.3343V0.573242Z" fill="#ACD793"/>
<path d="M39.8495 0.573242H39.3345V74.2512H39.8495V0.573242Z" fill="#ACD794"/>
<path d="M40.3524 0.573242H39.8374V74.2512H40.3524V0.573242Z" fill="#ACD795"/>
<path d="M40.8676 0.573242H40.3525V74.2512H40.8676V0.573242Z" fill="#ABD796"/>
<path d="M41.3827 0.573242H40.8677V74.2512H41.3827V0.573242Z" fill="#ABD797"/>
<path d="M41.8861 0.573242H41.3711V74.2512H41.8861V0.573242Z" fill="#ABD798"/>
<path d="M42.4008 0.573242H41.8857V74.2512H42.4008V0.573242Z" fill="#ABD799"/>
<path d="M42.9042 0.573242H42.3892V74.2512H42.9042V0.573242Z" fill="#AAD79A"/>
<path d="M43.4193 0.573242H42.9043V74.2512H43.4193V0.573242Z" fill="#AAD69B"/>
<path d="M43.9344 0.573242H43.4194V74.2512H43.9344V0.573242Z" fill="#AAD69C"/>
<path d="M44.4374 0.573242H43.9224V74.2512H44.4374V0.573242Z" fill="#AAD69D"/>
<path d="M44.9525 0.573242H44.4375V74.2512H44.9525V0.573242Z" fill="#AAD69E"/>
<path d="M45.4559 0.573242H44.9409V74.2512H45.4559V0.573242Z" fill="#A9D69F"/>
<path d="M45.9711 0.573242H45.4561V74.2512H45.9711V0.573242Z" fill="#A9D6A0"/>
<path d="M46.4857 0.573242H45.9707V74.2512H46.4857V0.573242Z" fill="#A9D6A1"/>
<path d="M46.9891 0.573242H46.4741V74.2512H46.9891V0.573242Z" fill="#A9D6A2"/>
<path d="M47.5043 0.573242H46.9893V74.2512H47.5043V0.573242Z" fill="#A8D6A3"/>
<path d="M48.0077 0.573242H47.4927V74.2512H48.0077V0.573242Z" fill="#A8D6A4"/>
<path d="M48.5223 0.573242H48.0073V74.2512H48.5223V0.573242Z" fill="#A8D6A5"/>
<path d="M49.0258 0.573242H48.5107V74.2512H49.0258V0.573242Z" fill="#A8D6A6"/>
<path d="M49.5409 0.573242H49.0259V74.2512H49.5409V0.573242Z" fill="#A8D6A7"/>
<path d="M50.056 0.573242H49.541V74.2512H50.056V0.573242Z" fill="#A7D6A8"/>
<path d="M50.5594 0.573242H50.0444V74.2512H50.5594V0.573242Z" fill="#A7D6A9"/>
<path d="M51.0741 0.573242H50.5591V74.2512H51.0741V0.573242Z" fill="#A7D5AA"/>
<path d="M51.5775 0.573242H51.0625V74.2512H51.5775V0.573242Z" fill="#A7D5AB"/>
<path d="M52.0926 0.573242H51.5776V74.2512H52.0926V0.573242Z" fill="#A6D5AC"/>
<path d="M52.6078 0.573242H52.0928V74.2512H52.6078V0.573242Z" fill="#A6D5AD"/>
<path d="M53.1107 0.573242H52.5957V74.2512H53.1107V0.573242Z" fill="#A6D5AE"/>
<path d="M53.6259 0.573242H53.1108V74.2512H53.6259V0.573242Z" fill="#A6D5AF"/>
<path d="M54.1293 0.573242H53.6143V74.2512H54.1293V0.573242Z" fill="#A6D5B0"/>
<path d="M54.6444 0.573242H54.1294V74.2512H54.6444V0.573242Z" fill="#A5D5B1"/>
<path d="M55.1591 0.573242H54.644V74.2512H55.1591V0.573242Z" fill="#A5D5B2"/>
<path d="M55.6625 0.573242H55.1475V74.2512H55.6625V0.573242Z" fill="#A5D5B3"/>
<path d="M56.1776 0.573242H55.6626V74.2512H56.1776V0.573242Z" fill="#A5D5B4"/>
<path d="M56.681 0.573242H56.166V74.2512H56.681V0.573242Z" fill="#A4D5B5"/>
<path d="M57.1957 0.573242H56.6807V74.2512H57.1957V0.573242Z" fill="#A4D5B6"/>
<path d="M57.7108 0.573242H57.1958V74.2512H57.7108V0.573242Z" fill="#A4D5B7"/>
<path d="M58.2142 0.573242H57.6992V74.2512H58.2142V0.573242Z" fill="#A4D5B8"/>
<path d="M58.7294 0.573242H58.2144V74.2512H58.7294V0.573242Z" fill="#A4D4B9"/>
<path d="M59.2323 0.573242H58.7173V74.2512H59.2323V0.573242Z" fill="#A3D4BA"/>
<path d="M59.7474 0.573242H59.2324V74.2512H59.7474V0.573242Z" fill="#A3D4BB"/>
<path d="M60.2509 0.573242H59.7358V74.2512H60.2509V0.573242Z" fill="#A3D4BC"/>
<path d="M60.766 0.573242H60.251V74.2512H60.766V0.573242Z" fill="#A3D4BD"/>
<path d="M61.2806 0.573242H60.7656V74.2512H61.2806V0.573242Z" fill="#A3D4BE"/>
<path d="M61.7841 0.573242H61.269V74.2512H61.7841V0.573242Z" fill="#A2D4BF"/>
<path d="M62.2992 0.573242H61.7842V74.2512H62.2992V0.573242Z" fill="#A2D4C0"/>
<path d="M62.8026 0.573242H62.2876V74.2512H62.8026V0.573242Z" fill="#A2D4C1"/>
<path d="M63.3173 0.573242H62.8022V74.2512H63.3173V0.573242Z" fill="#A2D4C2"/>
<path d="M63.8324 0.573242H63.3174V74.2512H63.8324V0.573242Z" fill="#A1D4C3"/>
<path d="M64.3358 0.573242H63.8208V74.2512H64.3358V0.573242Z" fill="#A1D4C4"/>
<path d="M64.851 0.573242H64.3359V74.2512H64.851V0.573242Z" fill="#A1D4C5"/>
<path d="M65.3544 0.573242H64.8394V74.2512H65.3544V0.573242Z" fill="#A1D4C6"/>
<path d="M65.869 0.573242H65.354V74.2512H65.869V0.573242Z" fill="#A1D3C7"/>
<path d="M66.3842 0.573242H65.8691V74.2512H66.3842V0.573242Z" fill="#A0D3C8"/>
<path d="M66.8876 0.573242H66.3726V74.2512H66.8876V0.573242Z" fill="#A0D3C9"/>
<path d="M67.4027 0.573242H66.8877V74.2512H67.4027V0.573242Z" fill="#A0D3CA"/>
<path d="M67.9056 0.573242H67.3906V74.2512H67.9056V0.573242Z" fill="#A0D3CB"/>
<path d="M68.4208 0.573242H67.9058V74.2512H68.4208V0.573242Z" fill="#9FD3CC"/>
<path d="M68.9359 0.573242H68.4209V74.2512H68.9359V0.573242Z" fill="#9FD3CD"/>
<path d="M69.4393 0.573242H68.9243V74.2512H69.4393V0.573242Z" fill="#9FD3CE"/>
</g>
</g>
<defs>
<clipPath id="clip0_2007_1667">
<rect width="69" height="73.6779" fill="white" transform="translate(0.96582 0.573242)"/>
</clipPath>
</defs>
</svg>
