<svg width="282" height="54" viewBox="0 0 282 54" fill="none" xmlns="http://www.w3.org/2000/svg">
<g clip-path="url(#clip0_2007_551)">
<path d="M93.7075 12.7026V40.0051H89.2572L76.3749 21.4048H76.1407V40.0051H71.1807V12.7026H75.6309L88.5132 31.3029H88.7475V12.7026H93.7075Z" fill="#0A404A"/>
<path d="M106.191 40.4175C104.138 40.4175 102.36 39.9913 100.858 39.1252C99.3705 38.2592 98.2131 37.0494 97.414 35.4684C96.6149 33.8875 96.2153 32.0316 96.2153 29.9007C96.2153 27.7699 96.6149 25.9277 97.414 24.333C98.2131 22.7383 99.3291 21.501 100.776 20.6074C102.222 19.7138 103.917 19.2739 105.887 19.2739C107.155 19.2739 108.34 19.4801 109.483 19.8788C110.613 20.2775 111.619 20.9099 112.501 21.7485C113.383 22.5871 114.071 23.6594 114.567 24.9654C115.063 26.2714 115.325 27.8111 115.325 29.612V31.1105H98.5025V27.8661H112.928L110.668 28.8147C110.668 27.6599 110.489 26.6426 110.131 25.7765C109.773 24.9104 109.249 24.2368 108.547 23.7556C107.844 23.2607 106.976 23.027 105.943 23.027C104.909 23.027 104.014 23.2744 103.283 23.7556C102.553 24.2368 101.988 24.8966 101.616 25.7215C101.23 26.5463 101.051 27.4674 101.051 28.4847V30.7393C101.051 31.9903 101.272 33.0489 101.699 33.9425C102.126 34.836 102.746 35.4959 103.531 35.9633C104.317 36.4307 105.24 36.6645 106.301 36.6645C106.99 36.6645 107.61 36.5682 108.188 36.3758C108.753 36.1833 109.249 35.8808 109.663 35.4822C110.076 35.0835 110.393 34.5886 110.613 34.0112L115.132 34.5473C114.843 35.7296 114.292 36.7744 113.507 37.6543C112.721 38.5341 111.702 39.2215 110.475 39.7026C109.249 40.1838 107.83 40.4313 106.246 40.4313L106.191 40.4175Z" fill="#0A404A"/>
<path d="M120.712 19.5214L124.845 27.11L129.048 19.5214H134.173L128 29.7907L134.283 40.0188H129.199L124.845 32.6502L120.56 40.0188H115.435L121.663 29.7907L115.587 19.5214H120.712Z" fill="#0A404A"/>
<path d="M149.219 31.4267V19.5351H154.055V40.0188H149.37V36.3757H149.15C148.681 37.5305 147.924 38.4654 146.877 39.194C145.829 39.9226 144.521 40.28 142.977 40.28C141.627 40.28 140.442 39.9913 139.423 39.3864C138.403 38.7953 137.604 37.9155 137.012 36.7607C136.433 35.6059 136.144 34.2036 136.144 32.5677V19.5214H140.98V31.8391C140.98 33.1176 141.338 34.1487 142.054 34.9185C142.771 35.6884 143.708 36.0596 144.879 36.0596C145.595 36.0596 146.284 35.8946 146.945 35.5509C147.607 35.2072 148.158 34.6986 148.585 34.0112C149.012 33.3238 149.233 32.4715 149.233 31.4267H149.219Z" fill="#0A404A"/>
<path d="M173.44 24.9654L169.045 25.419C168.866 24.7454 168.466 24.1543 167.846 23.6319C167.24 23.1094 166.372 22.8482 165.256 22.8482C164.25 22.8482 163.41 23.0682 162.735 23.5081C162.06 23.948 161.715 24.5117 161.715 25.1991C161.715 25.8039 161.936 26.2851 162.39 26.67C162.831 27.055 163.575 27.3574 164.622 27.5911L168.136 28.3197C170.065 28.7184 171.498 29.3783 172.448 30.2994C173.399 31.2204 173.881 32.4027 173.881 33.86C173.881 35.1385 173.509 36.2795 172.765 37.2693C172.021 38.2591 170.988 39.029 169.665 39.5789C168.342 40.1288 166.827 40.4037 165.118 40.4037C162.611 40.4037 160.585 39.8813 159.07 38.8228C157.541 37.7642 156.631 36.2933 156.328 34.4099L161.054 33.9699C161.261 34.891 161.715 35.5784 162.418 36.0458C163.121 36.5132 164.03 36.7469 165.132 36.7469C166.234 36.7469 167.213 36.5132 167.902 36.0458C168.604 35.5784 168.949 35.001 168.949 34.3136C168.949 33.1726 168.026 32.389 166.193 31.9628L162.68 31.2342C160.709 30.808 159.249 30.1069 158.312 29.1583C157.375 28.196 156.893 26.9725 156.893 25.4878C156.893 24.223 157.237 23.1232 157.94 22.1884C158.643 21.2535 159.607 20.5387 160.861 20.03C162.115 19.5214 163.562 19.2602 165.201 19.2602C167.612 19.2602 169.514 19.7826 170.891 20.8136C172.269 21.8447 173.123 23.2332 173.454 24.9654H173.44Z" fill="#0A404A"/>
<path d="M181.128 40.0188V12.7026H183.622V25.2266H199.164V12.7026H201.644V40.0051H199.164V27.4537H183.622V40.0051H181.128V40.0188Z" fill="#0A404A"/>
<path d="M215.159 40.4588C213.244 40.4588 211.591 40.0051 210.186 39.1115C208.78 38.2179 207.692 36.9669 206.934 35.3859C206.176 33.805 205.791 31.9766 205.791 29.9007C205.791 27.8248 206.163 26.0102 206.92 24.4017C207.678 22.807 208.725 21.5423 210.075 20.6212C211.426 19.7001 212.983 19.2464 214.76 19.2464C215.862 19.2464 216.937 19.4526 217.97 19.8651C219.017 20.2775 219.954 20.8961 220.781 21.721C221.608 22.5458 222.269 23.6044 222.751 24.8829C223.233 26.1614 223.468 27.6736 223.468 29.4333V30.4918H207.43V28.4022H222.186L221.098 29.2133C221.098 27.7286 220.85 26.3951 220.34 25.2128C219.83 24.0443 219.1 23.1095 218.163 22.4221C217.226 21.7347 216.083 21.391 214.76 21.391C213.437 21.391 212.294 21.7347 211.302 22.4221C210.31 23.1095 209.538 24.0305 209.001 25.1716C208.463 26.3126 208.188 27.5636 208.188 28.9246V30.1482C208.188 31.7841 208.477 33.2138 209.042 34.4236C209.607 35.6334 210.42 36.582 211.467 37.2556C212.514 37.9292 213.754 38.2592 215.173 38.2592C216.138 38.2592 216.992 38.1079 217.722 37.8055C218.452 37.503 219.072 37.0906 219.582 36.5682C220.078 36.0458 220.464 35.4822 220.726 34.8773L222.985 35.6334C222.668 36.4857 222.159 37.2831 221.456 38.0117C220.753 38.7403 219.872 39.3315 218.811 39.7714C217.75 40.2113 216.537 40.445 215.187 40.445L215.159 40.4588Z" fill="#0A404A"/>
<path d="M232.768 40.4725C231.528 40.4725 230.398 40.225 229.365 39.7439C228.331 39.2627 227.519 38.5616 226.912 37.6405C226.306 36.7194 226.003 35.5921 226.003 34.2724C226.003 33.2551 226.196 32.4027 226.568 31.7291C226.94 31.0417 227.491 30.4781 228.207 30.0382C228.924 29.5982 229.751 29.2408 230.715 28.9796C231.679 28.7184 232.74 28.5259 233.898 28.3885C235.055 28.2372 236.019 28.1135 236.819 28.0173C237.618 27.9073 238.224 27.7423 238.637 27.5086C239.051 27.2749 239.257 26.9037 239.257 26.3951V25.9139C239.257 24.5117 238.844 23.4119 238.003 22.6008C237.177 21.8034 235.978 21.4048 234.421 21.4048C232.864 21.4048 231.735 21.7347 230.798 22.3808C229.861 23.027 229.213 23.7968 228.855 24.6767L226.582 23.8518C227.05 22.7383 227.684 21.8447 228.511 21.1711C229.337 20.4974 230.247 20.0163 231.266 19.7138C232.286 19.4114 233.305 19.2602 234.352 19.2602C235.138 19.2602 235.951 19.3701 236.791 19.5764C237.631 19.7826 238.431 20.14 239.161 20.6349C239.891 21.1298 240.497 21.8309 240.952 22.7383C241.407 23.6319 241.641 24.7729 241.641 26.1339V40.0326H239.257V36.7882H239.106C238.83 37.3931 238.417 37.9704 237.852 38.5341C237.287 39.0977 236.584 39.5652 235.744 39.9363C234.903 40.3075 233.898 40.4862 232.754 40.4862L232.768 40.4725ZM233.099 38.3141C234.366 38.3141 235.455 38.0392 236.378 37.4755C237.301 36.9256 238.017 36.1695 238.513 35.2347C239.009 34.2999 239.271 33.2688 239.271 32.1553V29.1996C239.092 29.3645 238.789 29.5295 238.375 29.6532C237.962 29.7907 237.494 29.9007 236.956 29.9969C236.419 30.0932 235.882 30.1756 235.344 30.2581C234.793 30.3269 234.325 30.3956 233.898 30.4368C232.74 30.5881 231.762 30.808 230.935 31.1105C230.109 31.4129 229.475 31.8253 229.048 32.3615C228.607 32.8839 228.4 33.5713 228.4 34.3961C228.4 35.6334 228.841 36.582 229.737 37.2693C230.619 37.9567 231.748 38.3004 233.112 38.3004L233.099 38.3141Z" fill="#0A404A"/>
<path d="M248.75 12.7026V40.0051H246.38V12.7026H248.75Z" fill="#0A404A"/>
<path d="M261.549 19.5214V21.5973H251.753V19.5214H261.549ZM254.826 14.6548H257.196V34.6711C257.196 35.7846 257.471 36.6232 258.022 37.1731C258.573 37.723 259.345 38.0117 260.323 38.0117C260.544 38.0117 260.764 37.998 260.998 37.9705C261.219 37.943 261.467 37.888 261.729 37.833L262.238 39.9776C261.963 40.0876 261.632 40.1701 261.26 40.2388C260.888 40.2938 260.516 40.335 260.117 40.335C258.601 40.335 257.333 39.8676 256.328 38.9328C255.322 37.998 254.826 36.7744 254.826 35.2622V14.6823V14.6548Z" fill="#0A404A"/>
<path d="M268.191 27.2199V40.0188H265.821V12.7026H268.191V22.7658H268.425C268.907 21.7072 269.637 20.8549 270.643 20.2225C271.649 19.5901 272.93 19.2739 274.487 19.2739C275.865 19.2739 277.091 19.5626 278.138 20.1263C279.185 20.6899 280.012 21.5285 280.604 22.642C281.197 23.7556 281.5 25.1303 281.5 26.7663V40.0188H279.116V26.9175C279.116 25.2128 278.648 23.8793 277.697 22.9032C276.747 21.9272 275.465 21.4323 273.867 21.4323C272.779 21.4323 271.8 21.666 270.96 22.1334C270.106 22.6008 269.431 23.2744 268.935 24.1268C268.439 24.9791 268.191 26.0239 268.191 27.2199Z" fill="#0A404A"/>
<path d="M54.413 21.6799C53.5726 16.2634 50.5552 12.3041 45.7605 9.67837C45.2094 9.37592 44.8374 8.99099 44.5343 8.4411C39.8222 0.0826429 29.6679 -2.51563 21.4425 2.68091C21.0843 2.91462 20.7261 3.0246 20.2852 3.01085C16.6203 2.88712 13.2309 3.79446 10.2549 5.92531C5.47397 9.36217 3.25573 14.105 3.42106 19.9615C3.43484 20.5526 3.28328 21.0063 2.98017 21.5012C0.789485 25.048 0.0179236 28.9111 0.803263 33.0078C1.76772 38.0531 4.66107 41.7512 9.15266 44.212C9.814 44.5694 10.2549 45.0368 10.6131 45.6692C15.2012 53.7252 25.0386 56.3785 33.0435 51.6906C33.8702 51.2094 34.6418 50.8245 35.4409 51.017C38.3067 51.017 41.0209 50.3846 43.2529 49.1061C49.1223 45.7379 51.8779 40.6239 51.685 33.9014C51.685 33.4477 51.7677 33.0765 52.0157 32.6779C54.1237 29.296 55.0192 25.6117 54.413 21.6661V21.6799ZM25.8377 3.67073C25.879 3.2858 26.1546 3.13458 26.4852 3.05209C29.4337 2.2135 32.3546 2.22725 35.2342 3.36828C36.9427 4.04191 38.4582 5.00423 39.7671 6.269C40.0702 6.55769 40.6076 6.80515 40.332 7.38254C40.084 7.91869 39.5742 7.64374 39.1747 7.67124C37.0804 7.43753 35 7.54751 32.9471 7.90494C32.5062 7.98743 32.1893 7.78122 31.8862 7.54751C30.2053 6.22776 28.4004 5.11421 26.3888 4.3581C26.0719 4.23437 25.7826 4.0969 25.8239 3.68448L25.8377 3.67073ZM17.1438 11.0256C18.1772 9.03224 19.555 7.3138 21.291 5.88407C21.4976 5.70535 21.7732 5.65036 22.0625 5.6916C24.2119 6.04904 26.2097 6.77765 28.0835 7.87745C28.3315 8.02867 28.5244 8.20739 28.5106 8.52358C28.4968 8.83977 28.3039 9.01849 28.0284 9.11472C24.6941 10.242 21.3048 11.2043 17.8603 11.9055C17.819 11.9055 17.7638 11.9055 17.7225 11.9192C17.2127 11.9192 16.9096 11.493 17.1438 11.0256ZM8.46377 32.8978C8.18821 34.85 8.14688 36.8021 8.39488 38.768C8.42243 38.9879 8.43621 39.2216 8.44999 39.4554C8.47755 39.7441 8.44999 40.019 8.1331 40.1427C7.81621 40.2802 7.55443 40.129 7.33398 39.9228C5.68063 38.4105 4.48196 36.5959 3.75173 34.4925C2.82861 31.8805 2.7735 29.2272 3.48995 26.5602C3.5864 26.2028 3.62773 25.7629 4.16507 25.7491C4.64729 25.7354 4.75752 26.0928 4.90907 26.4365C5.74952 28.3749 6.85176 30.1621 8.20199 31.7843C8.49132 32.128 8.54644 32.4579 8.49132 32.9116L8.46377 32.8978ZM9.74511 27.4401C9.64867 27.6875 9.63489 27.99 9.38689 28.1687C8.94599 28.4986 8.6291 28.3062 8.3811 27.8937C7.00331 25.7354 6.23175 23.3708 5.92864 20.8413C5.84597 20.2089 5.74952 19.5765 5.79086 19.0404C5.81841 12.909 10.0069 7.49252 15.8487 5.9803C16.2207 5.88407 16.5789 5.74659 16.8407 6.13152C17.0887 6.5027 16.8821 6.8189 16.6478 7.12134C15.2976 8.82602 14.2918 10.7094 13.5478 12.7303C13.4238 13.0877 13.2171 13.2802 12.8589 13.4177C11.3158 14.0226 9.85534 14.7649 8.46377 15.6585C8.11932 15.8785 7.94021 16.1259 7.95399 16.5383C7.96776 17.102 7.91265 17.6794 7.92643 18.243C7.95399 18.8342 8.16065 18.9304 8.65666 18.6005C9.46955 18.0781 10.2687 17.5557 11.0678 17.0195C11.3847 16.8133 11.6878 16.7033 12.0185 16.9508C12.3354 17.1845 12.2665 17.5144 12.1976 17.8306C11.5913 21.075 10.8611 24.3057 9.71756 27.4126L9.74511 27.4401ZM12.3491 42.9884C12.0322 42.8785 11.8531 42.6998 11.7429 42.3973C10.9989 40.4039 10.6682 38.3418 10.6269 36.2247C10.6269 35.8948 10.6407 35.5648 10.9851 35.3999C11.3571 35.2349 11.6327 35.4136 11.9082 35.6611C14.154 37.5582 16.3034 39.5378 18.2461 41.7237C18.5216 42.0261 18.7972 42.1636 19.1967 42.1224C19.7616 42.0536 20.3403 42.0124 20.9052 41.9711C21.1394 41.9574 21.3185 41.8612 21.4012 41.6549C21.4839 41.435 21.2634 41.3388 21.1532 41.215C18.687 38.4793 16.0416 35.9223 13.2723 33.489C12.8314 33.0903 12.4456 32.6366 11.9634 32.2792C11.302 31.7843 11.2469 31.2206 11.4811 30.4783C12.2527 27.99 13.0242 25.5154 13.6994 22.9997C14.3056 20.7038 14.7878 18.3805 15.2976 16.0709C15.4354 15.4248 15.766 15.0811 16.4412 14.8887C19.307 14.0913 22.2554 13.6239 25.0799 12.744C27.6288 11.9467 30.1364 10.9981 32.768 10.4895C36.1022 9.84334 39.4089 9.82959 42.6605 10.9844C43.1152 11.1493 43.3769 11.3968 43.5423 11.8505C44.2449 13.8026 44.5756 15.8235 44.5618 17.8993C44.5618 18.243 44.4929 18.5455 44.1623 18.7104C43.7903 18.8892 43.5698 18.6417 43.3218 18.4355C41.1036 16.5521 38.9818 14.5725 37.0529 12.3866C36.7911 12.0842 36.5018 11.9604 36.0884 12.0429C35.62 12.1254 35.124 12.1117 34.6555 12.1667C34.4213 12.1942 34.1182 12.1529 34.008 12.4416C33.884 12.7578 34.1871 12.8678 34.3386 13.0465C36.9427 16.0709 39.8911 18.7379 42.8809 21.3775C43.8316 22.216 44.0658 22.9997 43.6663 24.2094C42.192 28.6774 41.1311 33.2553 40.1805 37.8606C40.0013 38.713 39.588 39.0704 38.7476 39.3179C36.1711 40.0602 33.4982 40.3489 30.9355 41.105C28.4555 41.8337 26.0581 42.8097 23.5368 43.3871C21.7043 43.8133 19.8581 44.0882 17.8878 44.0745C16.014 44.157 14.1678 43.6346 12.3354 43.0159L12.3491 42.9884ZM28.483 50.962C27.1879 51.3606 25.8377 51.4844 24.6803 51.5394C20.7812 51.4569 17.6536 50.0546 15.022 47.4839C14.774 47.2502 14.4847 46.989 14.7052 46.604C14.9118 46.2191 15.27 46.2603 15.6558 46.3016C17.7638 46.549 19.8581 46.494 21.9523 46.1366C22.3519 46.0679 22.6688 46.1366 22.9719 46.3841C24.6803 47.7451 26.5266 48.8586 28.5795 49.6697C28.9101 49.8072 29.2133 49.9722 29.1857 50.3983C29.1582 50.8107 28.7999 50.8795 28.4968 50.962H28.483ZM33.8977 48.0338C33.6773 48.2262 33.4569 48.35 33.1537 48.3087C30.9079 48.0063 28.8275 47.2089 26.8986 46.0266C26.6644 45.8892 26.5266 45.6692 26.5817 45.3943C26.6506 45.0781 26.9124 44.9131 27.2017 44.8306C29.5164 44.1295 31.7897 43.2909 34.1595 42.796C35.0964 42.6035 36.0333 42.3836 36.9564 42.1636C37.3009 42.0811 37.6591 41.9849 37.9071 42.2873C38.1689 42.6035 37.9898 42.9197 37.8107 43.2359C36.7773 45.0506 35.4822 46.6728 33.884 48.0338H33.8977ZM39.1747 47.91C39.0231 47.9513 38.8716 47.9925 38.7062 48.02C38.4444 48.075 38.1827 48.0475 38.0311 47.8001C37.8658 47.5389 37.8933 47.2639 38.0862 47.0302C39.5329 45.2293 40.5938 43.2222 41.4067 41.0638C41.5445 40.6926 41.8614 40.5826 42.1783 40.4589C43.7214 39.8678 45.1681 39.0842 46.5458 38.1768C46.8903 37.9431 47.0418 37.6957 47.0418 37.2833C47.0418 36.7334 47.097 36.1835 47.0832 35.6473C47.0832 35.1524 46.8352 35.0562 46.4081 35.3311C45.5814 35.8673 44.7547 36.4034 43.928 36.9258C43.6112 37.1183 43.2805 37.3108 42.9223 37.0358C42.5778 36.7746 42.7018 36.4447 42.7569 36.101C43.3218 32.7466 44.2312 29.4747 45.2783 26.2441C45.3747 25.9554 45.4712 25.6804 45.8432 25.6392C46.229 25.5979 46.4218 25.8316 46.601 26.1203C48.2267 28.7873 49.081 31.688 49.1085 33.6952C49.1085 40.9813 45.0165 46.3841 39.1885 47.9375L39.1747 47.91ZM51.6161 27.6875C51.5197 28.0312 51.3681 28.3062 50.9961 28.3062C50.6654 28.3062 50.4725 28.0862 50.3485 27.7838C49.4943 25.7216 48.337 23.8382 46.8903 22.1336C46.601 21.7899 46.601 21.4324 46.6698 21.0475C47.0143 18.9579 46.9867 16.8683 46.6836 14.7787C46.6285 14.4075 46.6285 14.0913 47.0005 13.8851C47.3587 13.6926 47.6205 13.9126 47.8547 14.1325C50.1694 16.3734 51.5748 19.0679 52.0157 22.2573C52.057 22.601 52.0983 22.9309 52.1259 23.2746C52.1397 23.5221 52.1259 23.7833 52.1259 24.0307C52.1259 25.268 51.9606 26.4778 51.6161 27.6738V27.6875Z" fill="url(#paint0_linear_2007_551)"/>
</g>
<defs>
<linearGradient id="paint0_linear_2007_551" x1="0.50015" y1="27.0002" x2="54.6059" y2="27.0002" gradientUnits="userSpaceOnUse">
<stop stop-color="#BCDC49"/>
<stop offset="1" stop-color="#9FD3CE"/>
</linearGradient>
<clipPath id="clip0_2007_551">
<rect width="281" height="54" fill="white" transform="translate(0.5)"/>
</clipPath>
</defs>
</svg>
