<?xml version="1.0" encoding="UTF-8"?><svg id="Layer_2" xmlns="http://www.w3.org/2000/svg" xmlns:xlink="http://www.w3.org/1999/xlink" viewBox="0 0 88.05 88.09"><defs><linearGradient id="linear-gradient" x1="0" y1="44.05" x2="88.05" y2="44.05" gradientUnits="userSpaceOnUse"><stop offset="0" stop-color="#bcdc49"/><stop offset="1" stop-color="#9fd3ce"/></linearGradient></defs><g id="Layer_1-2"><path d="M87.74,35.36c-1.38-8.85-6.27-15.29-14.08-19.57-.89-.49-1.5-1.13-1.99-2.02C64.01.13,47.47-4.11,34.09,4.38c-.59.38-1.18.55-1.89.53-5.96-.19-11.49,1.27-16.33,4.76-7.78,5.61-11.38,13.35-11.12,22.91.03.96-.22,1.71-.71,2.5C.46,40.87-.79,47.15.49,53.83c1.58,8.24,6.28,14.27,13.59,18.28,1.07.59,1.79,1.34,2.38,2.38,7.47,13.15,23.49,17.47,36.52,9.82,1.34-.79,2.61-1.42,3.9-1.1,4.67,0,9.08-1.04,12.71-3.12,9.55-5.49,14.05-13.83,13.73-24.79-.02-.75.14-1.35.53-1.99,3.42-5.52,4.9-11.52,3.89-17.95ZM41.25,5.98c.07-.62.53-.87,1.05-1.01,4.8-1.36,9.55-1.34,14.24.51,2.77,1.1,5.24,2.67,7.38,4.74.5.48,1.37.88.93,1.81-.41.86-1.24.43-1.88.47-3.42-.37-6.79-.21-10.15.39-.71.13-1.22-.2-1.73-.59-2.74-2.15-5.68-3.96-8.94-5.21-.51-.19-.98-.43-.91-1.1ZM27.09,17.98c1.68-3.25,3.92-6.06,6.75-8.39.35-.29.77-.39,1.26-.31,3.49.58,6.75,1.78,9.81,3.56.4.24.72.53.69,1.06-.03.52-.33.81-.79.97-5.43,1.83-10.94,3.4-16.56,4.54-.07.01-.15.02-.22.02-.83,0-1.33-.69-.94-1.45ZM12.95,53.66c-.44,3.18-.51,6.38-.12,9.57.04.37.06.74.09,1.11.05.47-.02.91-.51,1.13-.52.23-.94-.02-1.31-.36-2.7-2.46-4.63-5.42-5.84-8.86-1.5-4.27-1.6-8.59-.44-12.95.16-.59.22-1.3,1.1-1.33.78-.03.97.56,1.2,1.11,1.37,3.16,3.15,6.07,5.35,8.73.47.56.57,1.11.47,1.84ZM15.06,44.76c-.15.41-.18.9-.57,1.19-.73.54-1.22.21-1.65-.45-2.23-3.52-3.5-7.38-4-11.5-.13-1.03-.29-2.07-.22-2.95.04-10.01,6.87-18.83,16.36-21.31.59-.16,1.19-.37,1.62.25.41.6.08,1.12-.31,1.61-2.19,2.77-3.84,5.85-5.04,9.16-.21.58-.55.9-1.11,1.12-2.5.98-4.88,2.2-7.14,3.66-.55.36-.84.76-.82,1.44.03.93-.07,1.86-.04,2.79.04.96.37,1.11,1.19.59,1.32-.85,2.62-1.71,3.92-2.58.51-.34,1.01-.5,1.54-.12.52.38.4.93.3,1.44-.99,5.3-2.18,10.55-4.03,15.63ZM19.28,70.11c-.52-.18-.8-.48-.98-.96-1.21-3.24-1.75-6.61-1.81-10.06,0-.54.03-1.08.59-1.34.6-.28,1.04.03,1.5.42,3.65,3.08,7.15,6.32,10.31,9.9.44.5.9.72,1.56.64.92-.1,1.85-.18,2.78-.24.37-.03.67-.18.8-.51.14-.35-.21-.51-.4-.72-4.02-4.47-8.32-8.64-12.84-12.61-.73-.64-1.36-1.4-2.12-1.98-1.07-.81-1.16-1.74-.78-2.94,1.25-4.05,2.52-8.1,3.6-12.2.99-3.74,1.77-7.53,2.61-11.31.23-1.06.77-1.62,1.86-1.92,4.66-1.3,9.45-2.05,14.07-3.51,4.15-1.31,8.24-2.85,12.52-3.69,5.42-1.06,10.8-1.08,16.09.8.74.26,1.17.67,1.43,1.4,1.15,3.19,1.69,6.47,1.66,9.86,0,.56-.11,1.05-.64,1.32-.6.3-.97-.12-1.37-.46-3.61-3.07-7.06-6.31-10.2-9.86-.44-.49-.89-.69-1.57-.57-.76.14-1.56.11-2.33.21-.38.05-.87-.03-1.06.46-.2.52.3.71.55.99,4.24,4.93,9.04,9.29,13.89,13.59,1.55,1.37,1.93,2.65,1.28,4.62-2.4,7.29-4.13,14.75-5.68,22.26-.29,1.39-.96,1.98-2.32,2.38-4.18,1.22-8.53,1.67-12.71,2.91-4.03,1.19-7.94,2.77-12.05,3.72-2.98.69-6,1.15-9.2,1.12-3.05.13-6.05-.71-9.03-1.73ZM45.55,83.13c-2.12.64-4.3.85-6.18.95-6.34-.14-11.44-2.43-15.73-6.61-.4-.39-.87-.8-.52-1.44.35-.63.91-.57,1.55-.49,3.42.41,6.84.31,10.24-.26.66-.11,1.16,0,1.65.4,2.78,2.22,5.8,4.05,9.12,5.35.54.21,1.03.49.99,1.18-.05.68-.63.77-1.11.92ZM54.35,78.35c-.36.31-.72.52-1.21.44-3.66-.5-7.05-1.79-10.19-3.71-.37-.23-.62-.57-.51-1.03.12-.52.53-.78,1.01-.92,3.77-1.15,7.47-2.51,11.34-3.31,1.53-.32,3.04-.68,4.56-1.04.55-.13,1.13-.3,1.56.21.44.52.13,1.04-.15,1.54-1.69,2.97-3.79,5.6-6.4,7.83ZM62.96,78.15c-.25.07-.5.13-.76.18-.43.08-.84.03-1.09-.36-.26-.42-.22-.87.09-1.25,2.36-2.93,4.07-6.22,5.4-9.72.23-.6.74-.79,1.27-.99,2.51-.97,4.87-2.24,7.11-3.73.56-.37.81-.79.8-1.46,0-.89.09-1.78.06-2.67-.02-.8-.41-.97-1.09-.52-1.34.88-2.68,1.75-4.04,2.6-.51.32-1.05.64-1.64.17-.55-.43-.36-.97-.27-1.53.92-5.48,2.41-10.81,4.09-16.09.15-.47.32-.92.92-.99.64-.08.94.31,1.23.78,2.65,4.36,4.03,9.09,4.08,12.35,0,11.88-6.66,20.7-16.16,23.24ZM83.19,45.17c-.16.55-.41,1-1.02,1.01-.53.01-.85-.36-1.06-.85-1.39-3.36-3.28-6.43-5.62-9.21-.47-.56-.46-1.14-.36-1.78.56-3.41.52-6.82.02-10.23-.09-.6-.08-1.13.51-1.45.57-.31,1.01.04,1.39.41,3.76,3.65,6.06,8.04,6.76,13.25.07.55.14,1.11.17,1.66.03.41,0,.82,0,1.23-.01,2.02-.27,4-.82,5.94Z" style="fill:url(#linear-gradient);"/></g></svg>