<?xml version="1.0" encoding="UTF-8"?>
<svg id="Layer_1" data-name="Layer 1" xmlns="http://www.w3.org/2000/svg" xmlns:xlink="http://www.w3.org/1999/xlink" viewBox="0 0 489.6 107.91">
  <defs>
    <style>
      .cls-1 {
        fill: url(#linear-gradient);
      }

      .cls-2 {
        fill: #0a404a;
      }
    </style>
    <linearGradient id="linear-gradient" x1="13.12" y1="53.96" x2="101.18" y2="53.96" gradientUnits="userSpaceOnUse">
      <stop offset="0" stop-color="#bcdc49"/>
      <stop offset="1" stop-color="#9fd3ce"/>
    </linearGradient>
  </defs>
  <g>
    <g>
      <path class="cls-2" d="M164.83,30.64v44.55h-7.23l-20.96-30.34h-.39v30.34h-8.07V30.64h7.23l20.96,30.35h.39v-30.35h8.07Z"/>
      <path class="cls-2" d="M185.14,75.84c-3.35,0-6.24-.7-8.67-2.11-2.43-1.41-4.3-3.39-5.61-5.97s-1.96-5.6-1.96-9.09.65-6.47,1.94-9.07c1.29-2.6,3.12-4.63,5.47-6.08,2.35-1.45,5.12-2.18,8.31-2.18,2.05,0,4,.33,5.84.99,1.84.66,3.48,1.68,4.9,3.05,1.43,1.38,2.55,3.12,3.36,5.24.82,2.12,1.23,4.65,1.23,7.58v2.45h-27.38v-5.29h23.47l-3.68,1.55c0-1.89-.29-3.54-.87-4.94-.58-1.41-1.44-2.51-2.57-3.31-1.14-.8-2.55-1.2-4.25-1.2s-3.14.4-4.33,1.2-2.1,1.87-2.72,3.21-.93,2.85-.93,4.5v3.68c0,2.03.35,3.77,1.06,5.22s1.7,2.54,2.99,3.3,2.79,1.14,4.5,1.14c1.12,0,2.14-.16,3.06-.48.93-.32,1.72-.8,2.39-1.45.67-.64,1.18-1.45,1.54-2.4l7.35.87c-.48,1.93-1.36,3.62-2.65,5.07s-2.93,2.56-4.93,3.35c-2,.79-4.3,1.18-6.89,1.18Z"/>
      <path class="cls-2" d="M208.77,41.76l6.73,12.37,6.85-12.37h8.34l-10.04,16.74,10.22,16.68h-8.28l-7.08-12.02-6.97,12.02h-8.34l10.13-16.68-9.9-16.74h8.34Z"/>
      <path class="cls-2" d="M255.19,61.17v-19.4h7.86v33.42h-7.62v-5.95h-.36c-.76,1.87-1.99,3.41-3.71,4.61s-3.83,1.78-6.34,1.76c-2.19,0-4.12-.48-5.78-1.45-1.66-.96-2.97-2.39-3.92-4.27-.95-1.88-1.42-4.16-1.42-6.83v-21.29h7.86v20.09c0,2.09.58,3.77,1.75,5.02,1.17,1.26,2.7,1.87,4.59,1.85,1.16,0,2.28-.28,3.36-.84,1.09-.56,1.98-1.39,2.67-2.51s1.05-2.52,1.05-4.21Z"/>
      <path class="cls-2" d="M294.6,50.64l-7.14.75c-.3-1.1-.95-2.07-1.94-2.92s-2.4-1.27-4.21-1.27c-1.63,0-3,.36-4.11,1.08-1.11.71-1.66,1.63-1.66,2.75,0,.98.36,1.78,1.09,2.4.73.63,1.94,1.13,3.63,1.51l5.71,1.2c3.13.66,5.47,1.73,7.03,3.23s2.33,3.43,2.33,5.8c0,2.09-.61,3.95-1.82,5.56-1.22,1.61-2.9,2.87-5.04,3.77-2.14.9-4.61,1.34-7.4,1.34-4.09,0-7.37-.86-9.85-2.59-2.48-1.72-3.97-4.12-4.47-7.19l7.68-.72c.34,1.49,1.08,2.63,2.23,3.39s2.62,1.15,4.41,1.15,3.38-.39,4.51-1.15c1.14-.77,1.7-1.71,1.7-2.82,0-1.87-1.49-3.15-4.48-3.83l-5.71-1.2c-3.21-.7-5.58-1.83-7.11-3.39-1.54-1.56-2.3-3.56-2.3-5.99,0-2.07.57-3.87,1.7-5.38,1.14-1.52,2.72-2.69,4.75-3.53s4.38-1.26,7.05-1.26c3.93,0,7.01.84,9.25,2.53,2.24,1.68,3.63,3.94,4.17,6.77Z"/>
      <path class="cls-2" d="M307.11,75.19V30.64h4.07v20.42h25.29v-20.42h4.04v44.55h-4.04v-20.48h-25.29v20.48h-4.07Z"/>
      <path class="cls-2" d="M362.49,75.91c-3.11,0-5.81-.74-8.1-2.2-2.29-1.47-4.06-3.5-5.29-6.08-1.24-2.59-1.85-5.57-1.85-8.94s.61-6.36,1.84-8.97c1.23-2.61,2.93-4.66,5.13-6.16s4.73-2.24,7.62-2.24c1.79,0,3.54.34,5.23,1s3.22,1.68,4.57,3.04c1.35,1.35,2.42,3.07,3.2,5.16.78,2.08,1.17,4.56,1.17,7.43v1.73h-26.1v-3.41h24.01l-1.76,1.31c0-2.43-.41-4.6-1.24-6.52-.83-1.91-2.01-3.43-3.54-4.54s-3.38-1.67-5.53-1.67-4.01.56-5.62,1.69c-1.61,1.13-2.86,2.62-3.75,4.48-.89,1.87-1.33,3.9-1.33,6.11v2c0,2.67.46,5,1.39,6.98.93,1.98,2.24,3.53,3.95,4.62,1.7,1.09,3.71,1.64,6.02,1.64,1.57,0,2.96-.25,4.16-.75,1.2-.49,2.2-1.17,3.02-2.01.82-.85,1.43-1.77,1.85-2.77l3.68,1.23c-.52,1.4-1.35,2.68-2.5,3.87-1.15,1.19-2.58,2.14-4.31,2.87s-3.69,1.09-5.9,1.09Z"/>
      <path class="cls-2" d="M391.15,75.93c-2.01,0-3.86-.39-5.53-1.18-1.67-.79-3-1.94-3.99-3.44-.99-1.51-1.48-3.33-1.48-5.49,0-1.65.31-3.04.93-4.15.62-1.12,1.5-2.04,2.66-2.77,1.16-.73,2.52-1.31,4.08-1.73s3.29-.75,5.19-.97c1.87-.24,3.46-.44,4.75-.61,1.3-.17,2.28-.45,2.96-.82.68-.38,1.02-.99,1.02-1.83v-.78c0-2.29-.68-4.09-2.03-5.4s-3.3-1.96-5.83-1.96-4.38.53-5.89,1.59c-1.51,1.06-2.57,2.3-3.17,3.74l-3.71-1.34c.76-1.81,1.8-3.27,3.14-4.37,1.33-1.09,2.83-1.89,4.48-2.38,1.65-.49,3.33-.73,5.02-.73,1.28,0,2.6.17,3.98.51,1.38.34,2.66.92,3.86,1.73,1.2.82,2.17,1.96,2.91,3.43.75,1.46,1.12,3.31,1.12,5.54v22.66h-3.89v-5.29h-.24c-.44.98-1.12,1.93-2.03,2.85-.92.93-2.06,1.69-3.44,2.29-1.38.6-3,.89-4.87.89ZM391.69,72.41c2.05,0,3.83-.45,5.34-1.36,1.5-.91,2.67-2.12,3.48-3.66.82-1.53,1.23-3.21,1.23-5.02v-4.81c-.3.28-.78.53-1.45.74-.67.22-1.44.41-2.3.57s-1.74.3-2.63.42c-.89.12-1.67.22-2.35.3-1.87.24-3.48.61-4.83,1.1-1.35.5-2.37,1.18-3.08,2.03-.71.86-1.06,1.97-1.06,3.32,0,2.01.72,3.58,2.17,4.7,1.44,1.12,3.27,1.67,5.49,1.67Z"/>
      <path class="cls-2" d="M417.17,30.64v44.55h-3.86V30.64h3.86Z"/>
      <path class="cls-2" d="M438,41.76v3.38h-15.93v-3.38h15.93ZM427.05,33.81h3.86v32.65c0,1.81.45,3.17,1.35,4.08s2.14,1.36,3.74,1.36c.36,0,.72-.03,1.09-.07.37-.05.76-.13,1.18-.22l.84,3.5c-.46.18-.99.32-1.59.42s-1.22.15-1.85.15c-2.47,0-4.53-.76-6.16-2.29-1.63-1.52-2.45-3.52-2.45-6v-33.57Z"/>
      <path class="cls-2" d="M448.8,54.32v20.87h-3.86V30.64h3.86v16.42h.39c.78-1.73,1.98-3.12,3.62-4.16s3.72-1.55,6.25-1.55c2.25,0,4.24.46,5.95,1.39,1.71.93,3.05,2.3,4.02,4.11.97,1.81,1.45,4.06,1.45,6.73v21.61h-3.89v-21.38c0-2.77-.77-4.95-2.32-6.54-1.54-1.59-3.62-2.39-6.23-2.39-1.77,0-3.35.38-4.74,1.15-1.38.77-2.48,1.85-3.29,3.26-.81,1.41-1.21,3.09-1.21,5.04Z"/>
    </g>
    <path class="cls-1" d="M100.87,45.27c-1.38-8.85-6.27-15.29-14.08-19.57-.89-.49-1.5-1.13-1.99-2.02-7.66-13.65-24.2-17.9-37.58-9.4-.59.38-1.18.55-1.89.53-5.96-.19-11.49,1.27-16.33,4.76-7.78,5.61-11.38,13.35-11.12,22.91.03.96-.22,1.71-.71,2.5-3.59,5.79-4.84,12.08-3.56,18.75,1.58,8.24,6.28,14.27,13.59,18.28,1.07.59,1.79,1.34,2.38,2.38,7.47,13.15,23.49,17.47,36.52,9.82,1.34-.79,2.61-1.42,3.9-1.1,4.67,0,9.08-1.04,12.71-3.12,9.55-5.49,14.05-13.83,13.73-24.79-.02-.75.14-1.35.53-1.99,3.42-5.52,4.9-11.52,3.89-17.95ZM54.37,15.89c.07-.62.53-.87,1.05-1.01,4.8-1.36,9.55-1.34,14.24.51,2.77,1.1,5.24,2.67,7.38,4.74.5.48,1.37.88.93,1.81-.41.86-1.24.43-1.88.47-3.42-.37-6.79-.21-10.15.39-.71.13-1.22-.2-1.73-.59-2.74-2.15-5.68-3.96-8.94-5.21-.51-.19-.98-.43-.91-1.1ZM40.22,27.89c1.68-3.25,3.92-6.06,6.75-8.39.35-.29.77-.39,1.26-.31,3.49.58,6.75,1.78,9.81,3.56.4.24.72.53.69,1.06-.03.52-.33.81-.79.97-5.43,1.83-10.94,3.4-16.56,4.54-.07.01-.15.02-.22.02-.83,0-1.33-.69-.94-1.45ZM26.08,63.57c-.44,3.18-.51,6.38-.12,9.57.04.37.06.74.09,1.11.05.47-.02.91-.51,1.13-.52.23-.94-.02-1.31-.36-2.7-2.46-4.63-5.42-5.84-8.86-1.5-4.27-1.6-8.59-.44-12.95.16-.59.22-1.3,1.1-1.33.78-.03.97.56,1.2,1.11,1.37,3.16,3.15,6.07,5.35,8.73.47.56.57,1.11.47,1.84ZM28.18,54.67c-.15.41-.18.9-.57,1.19-.73.54-1.22.21-1.65-.45-2.23-3.52-3.5-7.38-4-11.5-.13-1.03-.29-2.07-.22-2.95.04-10.01,6.87-18.83,16.36-21.31.59-.16,1.19-.37,1.62.25.41.6.08,1.12-.31,1.61-2.19,2.77-3.84,5.85-5.04,9.16-.21.58-.55.9-1.11,1.12-2.5.98-4.88,2.2-7.14,3.66-.55.36-.84.76-.82,1.44.03.93-.07,1.86-.04,2.79.04.96.37,1.11,1.19.59,1.32-.85,2.62-1.71,3.92-2.58.51-.34,1.01-.5,1.54-.12.52.38.4.93.3,1.44-.99,5.3-2.18,10.55-4.03,15.63ZM32.41,80.02c-.52-.18-.8-.48-.98-.96-1.21-3.24-1.75-6.61-1.81-10.06,0-.54.03-1.08.59-1.34.6-.28,1.04.03,1.5.42,3.65,3.08,7.15,6.32,10.31,9.9.44.5.9.72,1.56.64.92-.1,1.85-.18,2.78-.24.37-.03.67-.18.8-.51.14-.35-.21-.51-.4-.72-4.02-4.47-8.32-8.64-12.84-12.61-.73-.64-1.36-1.4-2.12-1.98-1.07-.81-1.16-1.74-.78-2.94,1.25-4.05,2.52-8.1,3.6-12.2.99-3.74,1.77-7.53,2.61-11.31.23-1.06.77-1.62,1.86-1.92,4.66-1.3,9.45-2.05,14.07-3.51,4.15-1.31,8.24-2.85,12.52-3.69,5.42-1.06,10.8-1.08,16.09.8.74.26,1.17.67,1.43,1.4,1.15,3.19,1.69,6.47,1.66,9.86,0,.56-.11,1.05-.64,1.32-.6.3-.97-.12-1.37-.46-3.61-3.07-7.06-6.31-10.2-9.86-.44-.49-.89-.69-1.57-.57-.76.14-1.56.11-2.33.21-.38.05-.87-.03-1.06.46-.2.52.3.71.55.99,4.24,4.93,9.04,9.29,13.89,13.59,1.55,1.37,1.93,2.65,1.28,4.62-2.4,7.29-4.13,14.75-5.68,22.26-.29,1.39-.96,1.98-2.32,2.38-4.18,1.22-8.53,1.67-12.71,2.91-4.03,1.19-7.94,2.77-12.05,3.72-2.98.69-6,1.15-9.2,1.12-3.05.13-6.05-.71-9.03-1.73ZM58.68,93.04c-2.12.64-4.3.85-6.18.95-6.34-.14-11.44-2.43-15.73-6.61-.4-.39-.87-.8-.52-1.44.35-.63.91-.57,1.55-.49,3.42.41,6.84.31,10.24-.26.66-.11,1.16,0,1.65.4,2.78,2.22,5.8,4.05,9.12,5.35.54.21,1.03.49.99,1.18-.05.68-.63.77-1.11.92ZM67.47,88.26c-.36.31-.72.52-1.21.44-3.66-.5-7.05-1.79-10.19-3.71-.37-.23-.62-.57-.51-1.03.12-.52.53-.78,1.01-.92,3.77-1.15,7.47-2.51,11.34-3.31,1.53-.32,3.04-.68,4.56-1.04.55-.13,1.13-.3,1.56.21.44.52.13,1.04-.15,1.54-1.69,2.97-3.79,5.6-6.4,7.83ZM76.08,88.06c-.25.07-.5.13-.76.18-.43.08-.84.03-1.09-.36-.26-.42-.22-.87.09-1.25,2.36-2.93,4.07-6.22,5.4-9.72.23-.6.74-.79,1.27-.99,2.51-.97,4.87-2.24,7.11-3.73.56-.37.81-.79.8-1.46,0-.89.09-1.78.06-2.67-.02-.8-.41-.97-1.09-.52-1.34.88-2.68,1.75-4.04,2.6-.51.32-1.05.64-1.64.17-.55-.43-.36-.97-.27-1.53.92-5.48,2.41-10.81,4.09-16.09.15-.47.32-.92.92-.99.64-.08.94.31,1.23.78,2.65,4.36,4.03,9.09,4.08,12.35,0,11.88-6.66,20.7-16.16,23.24ZM96.31,55.08c-.16.55-.41,1-1.02,1.01-.53.01-.85-.36-1.06-.85-1.39-3.36-3.28-6.43-5.62-9.21-.47-.56-.46-1.14-.36-1.78.56-3.41.52-6.82.02-10.23-.09-.6-.08-1.13.51-1.45.57-.31,1.01.04,1.39.41,3.76,3.65,6.06,8.04,6.76,13.25.07.55.14,1.11.17,1.66.03.41,0,.82,0,1.23-.01,2.02-.27,4-.82,5.94Z"/>
  </g>
  <path class="cls-2" d="M477.69,37.42v-5.53h-1.71v-1.17h4.73v1.17h-1.7v5.53h-1.32ZM481.41,37.42v-6.7h1.26l2.52,3.38h-.61l2.46-3.38h1.26v6.7h-1.3v-5.23l.52.13-2.58,3.36h-.17l-2.49-3.36.45-.13v5.23h-1.32Z"/>
</svg>