<?xml version="1.0" encoding="UTF-8"?>
<svg id="Layer_1" data-name="Layer 1" xmlns="http://www.w3.org/2000/svg" xmlns:xlink="http://www.w3.org/1999/xlink" viewBox="0 0 489.6 107.91">
  <defs>
    <style>
      .cls-1 {
        fill: url(#linear-gradient);
      }

      .cls-2 {
        letter-spacing: .33em;
      }

      .cls-3 {
        letter-spacing: .32em;
      }

      .cls-4 {
        letter-spacing: .27em;
      }

      .cls-5 {
        letter-spacing: .29em;
      }

      .cls-6 {
        letter-spacing: .31em;
      }

      .cls-7 {
        letter-spacing: .31em;
      }

      .cls-8 {
        font-family: CircularStd-Book, 'Circular Std';
        font-size: 12.37px;
      }

      .cls-8, .cls-9 {
        fill: #0a404a;
      }
    </style>
    <linearGradient id="linear-gradient" x1="16.12" y1="53.96" x2="104.18" y2="53.96" gradientUnits="userSpaceOnUse">
      <stop offset="0" stop-color="#bcdc49"/>
      <stop offset="1" stop-color="#9fd3ce"/>
    </linearGradient>
  </defs>
  <g>
    <path class="cls-9" d="M163.1,24.64v38.98h-6.33l-18.34-26.55h-.34v26.55h-7.06V24.64h6.33l18.34,26.55h.34v-26.55h7.06Z"/>
    <path class="cls-9" d="M180.88,64.19c-2.93,0-5.46-.61-7.59-1.84-2.13-1.23-3.76-2.97-4.9-5.22s-1.71-4.9-1.71-7.95.57-5.66,1.7-7.94c1.13-2.27,2.73-4.05,4.79-5.32,2.06-1.27,4.48-1.91,7.27-1.91,1.8,0,3.5.29,5.11.86,1.61.57,3.04,1.47,4.29,2.67,1.25,1.2,2.23,2.73,2.94,4.59.71,1.86,1.07,4.07,1.07,6.63v2.14h-23.96v-4.63h20.53l-3.22,1.36c0-1.66-.25-3.1-.76-4.33-.51-1.23-1.26-2.2-2.25-2.89-.99-.7-2.23-1.05-3.71-1.05s-2.75.35-3.79,1.05-1.84,1.64-2.38,2.81-.81,2.49-.81,3.94v3.22c0,1.78.31,3.3.93,4.56s1.49,2.23,2.62,2.89,2.44,1,3.94,1c.98,0,1.87-.14,2.68-.42.81-.28,1.51-.7,2.09-1.27.58-.56,1.03-1.27,1.35-2.1l6.44.76c-.42,1.69-1.19,3.17-2.32,4.43s-2.56,2.24-4.32,2.93c-1.75.69-3.76,1.03-6.03,1.03Z"/>
    <path class="cls-9" d="M201.56,34.37l5.89,10.83,5.99-10.83h7.3l-8.79,14.65,8.95,14.6h-7.25l-6.2-10.52-6.1,10.52h-7.3l8.87-14.6-8.66-14.65h7.3Z"/>
    <path class="cls-9" d="M242.17,51.35v-16.98h6.88v29.24h-6.67v-5.21h-.31c-.66,1.64-1.74,2.99-3.24,4.03s-3.35,1.56-5.55,1.54c-1.92,0-3.61-.42-5.06-1.27-1.46-.84-2.6-2.09-3.43-3.74-.83-1.65-1.24-3.64-1.24-5.97v-18.63h6.88v17.58c0,1.83.51,3.3,1.53,4.4,1.02,1.1,2.36,1.64,4.02,1.62,1.01,0,1.99-.24,2.94-.73.95-.49,1.73-1.22,2.34-2.2s.92-2.21.92-3.69Z"/>
    <path class="cls-9" d="M276.66,42.14l-6.25.66c-.26-.96-.83-1.81-1.7-2.55s-2.1-1.11-3.69-1.11c-1.43,0-2.63.31-3.6.94-.97.62-1.45,1.43-1.45,2.41,0,.85.32,1.56.96,2.1.64.55,1.7.99,3.18,1.32l5,1.05c2.74.57,4.79,1.52,6.15,2.82s2.04,3,2.04,5.07c0,1.83-.53,3.45-1.6,4.87-1.06,1.41-2.53,2.51-4.41,3.3-1.87.79-4.03,1.18-6.47,1.18-3.57,0-6.45-.75-8.62-2.26-2.17-1.51-3.47-3.6-3.91-6.29l6.72-.63c.3,1.31.95,2.3,1.95,2.97s2.29,1.01,3.86,1.01,2.96-.34,3.95-1.01c.99-.67,1.49-1.49,1.49-2.47,0-1.64-1.31-2.76-3.92-3.35l-5-1.05c-2.81-.61-4.88-1.6-6.23-2.97-1.34-1.37-2.01-3.12-2.01-5.24,0-1.81.5-3.38,1.49-4.71.99-1.33,2.38-2.35,4.16-3.09s3.84-1.1,6.17-1.1c3.44,0,6.13.74,8.1,2.21,1.96,1.47,3.18,3.45,3.65,5.92Z"/>
    <path class="cls-9" d="M287.61,63.62V24.64h3.56v17.87h22.13v-17.87h3.53v38.98h-3.53v-17.92h-22.13v17.92h-3.56Z"/>
    <path class="cls-9" d="M336.06,64.25c-2.72,0-5.08-.64-7.09-1.92-2.01-1.28-3.55-3.06-4.63-5.32-1.08-2.27-1.62-4.87-1.62-7.82s.54-5.56,1.61-7.85c1.07-2.28,2.57-4.08,4.49-5.39s4.14-1.96,6.67-1.96c1.57,0,3.1.3,4.58.88s2.82,1.47,4,2.66c1.19,1.18,2.12,2.69,2.8,4.51.68,1.82,1.02,3.99,1.02,6.5v1.52h-22.84v-2.98h21.01l-1.54,1.15c0-2.13-.36-4.03-1.09-5.7-.72-1.67-1.76-3-3.1-3.97s-2.96-1.46-4.84-1.46-3.5.49-4.92,1.48c-1.41.98-2.51,2.3-3.28,3.92-.78,1.63-1.16,3.41-1.16,5.35v1.75c0,2.34.41,4.37,1.22,6.11.81,1.74,1.96,3.09,3.45,4.04,1.49.96,3.25,1.44,5.27,1.44,1.38,0,2.59-.22,3.64-.66,1.05-.43,1.93-1.02,2.64-1.76.71-.74,1.26-1.55,1.62-2.42l3.22,1.07c-.45,1.22-1.18,2.35-2.18,3.39-1,1.04-2.26,1.87-3.77,2.51s-3.23.96-5.17.96Z"/>
    <path class="cls-9" d="M361.14,64.27c-1.76,0-3.38-.34-4.84-1.03-1.46-.69-2.63-1.69-3.49-3.01-.86-1.32-1.3-2.92-1.3-4.8,0-1.44.27-2.66.81-3.63.54-.98,1.32-1.79,2.33-2.42,1.01-.64,2.2-1.14,3.57-1.52s2.88-.66,4.54-.85c1.64-.21,3.03-.39,4.16-.53,1.13-.15,2-.39,2.59-.72.59-.33.89-.86.89-1.6v-.68c0-2-.59-3.58-1.78-4.72s-2.89-1.71-5.1-1.71-3.83.46-5.15,1.39c-1.33.92-2.25,2.01-2.77,3.27l-3.24-1.18c.66-1.59,1.58-2.86,2.75-3.82,1.17-.96,2.48-1.65,3.92-2.08,1.45-.43,2.91-.64,4.39-.64,1.12,0,2.28.15,3.48.44,1.2.3,2.33.8,3.37,1.52,1.05.72,1.9,1.71,2.55,3,.65,1.28.98,2.9.98,4.85v19.83h-3.4v-4.63h-.21c-.38.85-.98,1.69-1.78,2.49-.8.81-1.81,1.48-3.01,2-1.2.52-2.63.78-4.26.78ZM361.61,61.19c1.8,0,3.35-.39,4.67-1.19,1.32-.79,2.33-1.86,3.05-3.2.71-1.34,1.07-2.81,1.07-4.39v-4.21c-.26.24-.69.46-1.27.65-.59.19-1.26.36-2.01.5s-1.53.26-2.3.36c-.78.11-1.46.2-2.05.26-1.64.21-3.05.53-4.22.97-1.18.44-2.08,1.03-2.69,1.78-.62.75-.93,1.72-.93,2.9,0,1.76.63,3.13,1.9,4.11,1.26.98,2.86,1.46,4.8,1.46Z"/>
    <path class="cls-9" d="M383.91,24.64v38.98h-3.37V24.64h3.37Z"/>
    <path class="cls-9" d="M402.13,34.37v2.95h-13.94v-2.95h13.94ZM392.55,27.41h3.37v28.57c0,1.59.39,2.77,1.18,3.57s1.87,1.19,3.27,1.19c.31,0,.63-.02.95-.07.32-.04.67-.11,1.03-.2l.73,3.06c-.4.16-.86.28-1.39.37s-1.06.13-1.62.13c-2.16,0-3.96-.67-5.39-2-1.43-1.33-2.15-3.08-2.15-5.25v-29.37Z"/>
    <path class="cls-9" d="M411.58,45.36v18.26h-3.37V24.64h3.37v14.36h.34c.68-1.52,1.74-2.73,3.17-3.64s3.25-1.36,5.47-1.36c1.97,0,3.71.41,5.21,1.21,1.5.81,2.67,2.01,3.52,3.6.85,1.59,1.27,3.55,1.27,5.89v18.91h-3.4v-18.71c0-2.42-.67-4.33-2.03-5.73-1.35-1.39-3.17-2.09-5.45-2.09-1.55,0-2.93.33-4.15,1-1.21.67-2.17,1.62-2.88,2.85-.71,1.23-1.06,2.7-1.06,4.41Z"/>
  </g>
  <path class="cls-1" d="M103.87,45.27c-1.38-8.85-6.27-15.29-14.08-19.57-.89-.49-1.5-1.13-1.99-2.02-7.66-13.65-24.2-17.9-37.58-9.4-.59.38-1.18.55-1.89.53-5.96-.19-11.49,1.27-16.33,4.76-7.78,5.61-11.38,13.35-11.12,22.91.03.96-.22,1.71-.71,2.5-3.59,5.79-4.84,12.08-3.56,18.75,1.58,8.24,6.28,14.27,13.59,18.28,1.07.59,1.79,1.34,2.38,2.38,7.47,13.15,23.49,17.47,36.52,9.82,1.34-.79,2.61-1.42,3.9-1.1,4.67,0,9.08-1.04,12.71-3.12,9.55-5.49,14.05-13.83,13.73-24.79-.02-.75.14-1.35.53-1.99,3.42-5.52,4.9-11.52,3.89-17.95ZM57.37,15.89c.07-.62.53-.87,1.05-1.01,4.8-1.36,9.55-1.34,14.24.51,2.77,1.1,5.24,2.67,7.38,4.74.5.48,1.37.88.93,1.81-.41.86-1.24.43-1.88.47-3.42-.37-6.79-.21-10.15.39-.71.13-1.22-.2-1.73-.59-2.74-2.15-5.68-3.96-8.94-5.21-.51-.19-.98-.43-.91-1.1ZM43.22,27.89c1.68-3.25,3.92-6.06,6.75-8.39.35-.29.77-.39,1.26-.31,3.49.58,6.75,1.78,9.81,3.56.4.24.72.53.69,1.06-.03.52-.33.81-.79.97-5.43,1.83-10.94,3.4-16.56,4.54-.07.01-.15.02-.22.02-.83,0-1.33-.69-.94-1.45ZM29.08,63.57c-.44,3.18-.51,6.38-.12,9.57.04.37.06.74.09,1.11.05.47-.02.91-.51,1.13-.52.23-.94-.02-1.31-.36-2.7-2.46-4.63-5.42-5.84-8.86-1.5-4.27-1.6-8.59-.44-12.95.16-.59.22-1.3,1.1-1.33.78-.03.97.56,1.2,1.11,1.37,3.16,3.15,6.07,5.35,8.73.47.56.57,1.11.47,1.84ZM31.18,54.67c-.15.41-.18.9-.57,1.19-.73.54-1.22.21-1.65-.45-2.23-3.52-3.5-7.38-4-11.5-.13-1.03-.29-2.07-.22-2.95.04-10.01,6.87-18.83,16.36-21.31.59-.16,1.19-.37,1.62.25.41.6.08,1.12-.31,1.61-2.19,2.77-3.84,5.85-5.04,9.16-.21.58-.55.9-1.11,1.12-2.5.98-4.88,2.2-7.14,3.66-.55.36-.84.76-.82,1.44.03.93-.07,1.86-.04,2.79.04.96.37,1.11,1.19.59,1.32-.85,2.62-1.71,3.92-2.58.51-.34,1.01-.5,1.54-.12.52.38.4.93.3,1.44-.99,5.3-2.18,10.55-4.03,15.63ZM35.41,80.02c-.52-.18-.8-.48-.98-.96-1.21-3.24-1.75-6.61-1.81-10.06,0-.54.03-1.08.59-1.34.6-.28,1.04.03,1.5.42,3.65,3.08,7.15,6.32,10.31,9.9.44.5.9.72,1.56.64.92-.1,1.85-.18,2.78-.24.37-.03.67-.18.8-.51.14-.35-.21-.51-.4-.72-4.02-4.47-8.32-8.64-12.84-12.61-.73-.64-1.36-1.4-2.12-1.98-1.07-.81-1.16-1.74-.78-2.94,1.25-4.05,2.52-8.1,3.6-12.2.99-3.74,1.77-7.53,2.61-11.31.23-1.06.77-1.62,1.86-1.92,4.66-1.3,9.45-2.05,14.07-3.51,4.15-1.31,8.24-2.85,12.52-3.69,5.42-1.06,10.8-1.08,16.09.8.74.26,1.17.67,1.43,1.4,1.15,3.19,1.69,6.47,1.66,9.86,0,.56-.11,1.05-.64,1.32-.6.3-.97-.12-1.37-.46-3.61-3.07-7.06-6.31-10.2-9.86-.44-.49-.89-.69-1.57-.57-.76.14-1.56.11-2.33.21-.38.05-.87-.03-1.06.46-.2.52.3.71.55.99,4.24,4.93,9.04,9.29,13.89,13.59,1.55,1.37,1.93,2.65,1.28,4.62-2.4,7.29-4.13,14.75-5.68,22.26-.29,1.39-.96,1.98-2.32,2.38-4.18,1.22-8.53,1.67-12.71,2.91-4.03,1.19-7.94,2.77-12.05,3.72-2.98.69-6,1.15-9.2,1.12-3.05.13-6.05-.71-9.03-1.73ZM61.68,93.04c-2.12.64-4.3.85-6.18.95-6.34-.14-11.44-2.43-15.73-6.61-.4-.39-.87-.8-.52-1.44.35-.63.91-.57,1.55-.49,3.42.41,6.84.31,10.24-.26.66-.11,1.16,0,1.65.4,2.78,2.22,5.8,4.05,9.12,5.35.54.21,1.03.49.99,1.18-.05.68-.63.77-1.11.92ZM70.47,88.26c-.36.31-.72.52-1.21.44-3.66-.5-7.05-1.79-10.19-3.71-.37-.23-.62-.57-.51-1.03.12-.52.53-.78,1.01-.92,3.77-1.15,7.47-2.51,11.34-3.31,1.53-.32,3.04-.68,4.56-1.04.55-.13,1.13-.3,1.56.21.44.52.13,1.04-.15,1.54-1.69,2.97-3.79,5.6-6.4,7.83ZM79.08,88.06c-.25.07-.5.13-.76.18-.43.08-.84.03-1.09-.36-.26-.42-.22-.87.09-1.25,2.36-2.93,4.07-6.22,5.4-9.72.23-.6.74-.79,1.27-.99,2.51-.97,4.87-2.24,7.11-3.73.56-.37.81-.79.8-1.46,0-.89.09-1.78.06-2.67-.02-.8-.41-.97-1.09-.52-1.34.88-2.68,1.75-4.04,2.6-.51.32-1.05.64-1.64.17-.55-.43-.36-.97-.27-1.53.92-5.48,2.41-10.81,4.09-16.09.15-.47.32-.92.92-.99.64-.08.94.31,1.23.78,2.65,4.36,4.03,9.09,4.08,12.35,0,11.88-6.66,20.7-16.16,23.24ZM99.31,55.08c-.16.55-.41,1-1.02,1.01-.53.01-.85-.36-1.06-.85-1.39-3.36-3.28-6.43-5.62-9.21-.47-.56-.46-1.14-.36-1.78.56-3.41.52-6.82.02-10.23-.09-.6-.08-1.13.51-1.45.57-.31,1.01.04,1.39.41,3.76,3.65,6.06,8.04,6.76,13.25.07.55.14,1.11.17,1.66.03.41,0,.82,0,1.23-.01,2.02-.27,4-.82,5.94Z"/>
  <text class="cls-8" transform="translate(129.3 87.61)"><tspan class="cls-4" x="0" y="0">P</tspan><tspan class="cls-2" x="10.72" y="0">ART OF THE </tspan><tspan class="cls-5" x="128.86" y="0">L</tspan><tspan class="cls-2" x="139.29" y="0">OC</tspan><tspan class="cls-6" x="166.64" y="0">K</tspan><tspan class="cls-7" x="178.8" y="0">W</tspan><tspan class="cls-2" x="195.05" y="0">OOD G</tspan><tspan class="cls-3" x="256.75" y="0">R</tspan><tspan class="cls-2" x="268.43" y="0">OUP</tspan></text>
  <path class="cls-9" d="M437.12,31v-4.83h-1.49v-1.02h4.13v1.02h-1.48v4.83h-1.15ZM440.37,31v-5.86h1.1l2.2,2.95h-.54l2.15-2.95h1.1v5.86h-1.14v-4.57l.46.12-2.25,2.94h-.14l-2.18-2.94.39-.12v4.57h-1.15Z"/>
</svg>