<?xml version="1.0" encoding="UTF-8"?>
<svg id="Layer_1" xmlns="http://www.w3.org/2000/svg" xmlns:xlink="http://www.w3.org/1999/xlink" version="1.1" viewBox="0 0 489.6 107.9">
  <!-- Generator: Adobe Illustrator 29.6.1, SVG Export Plug-In . SVG Version: 2.1.1 Build 9)  -->
  <defs>
    <style>
      .st0 {
        fill: url(#linear-gradient);
      }

      .st1 {
        isolation: isolate;
      }

      .st2 {
        fill: #0a404a;
      }
    </style>
    <linearGradient id="linear-gradient" x1="16.1" y1="56.1" x2="104.2" y2="56.1" gradientTransform="translate(0 110) scale(1 -1)" gradientUnits="userSpaceOnUse">
      <stop offset="0" stop-color="#bcdc49"/>
      <stop offset="1" stop-color="#9fd3ce"/>
    </linearGradient>
  </defs>
  <g>
    <path class="st2" d="M163.1,24.6v39h-6.3l-18.3-26.5h-.3v26.5h-7.1V24.6h6.3l18.3,26.5h.3v-26.5h7.1Z"/>
    <path class="st2" d="M180.9,64.2c-2.9,0-5.5-.6-7.6-1.8-2.1-1.2-3.8-3-4.9-5.2s-1.7-4.9-1.7-8,.6-5.7,1.7-7.9c1.1-2.3,2.7-4,4.8-5.3s4.5-1.9,7.3-1.9,3.5.3,5.1.9,3,1.5,4.3,2.7c1.2,1.2,2.2,2.7,2.9,4.6s1.1,4.1,1.1,6.6v2.1h-24v-4.6h20.5l-3.2,1.4c0-1.7-.2-3.1-.8-4.3s-1.3-2.2-2.2-2.9c-1-.7-2.2-1-3.7-1s-2.8.3-3.8,1-1.8,1.6-2.4,2.8-.8,2.5-.8,3.9v3.2c0,1.8.3,3.3.9,4.6s1.5,2.2,2.6,2.9,2.4,1,3.9,1,1.9-.1,2.7-.4,1.5-.7,2.1-1.3c.6-.6,1-1.3,1.4-2.1l6.4.8c-.4,1.7-1.2,3.2-2.3,4.4s-2.6,2.2-4.3,2.9c-1.8.7-3.8,1-6,1h0Z"/>
    <path class="st2" d="M201.6,34.4l5.9,10.8,6-10.8h7.3l-8.8,14.7,8.9,14.6h-7.2l-6.2-10.5-6.1,10.5h-7.3l8.9-14.6-8.7-14.7s7.3,0,7.3,0Z"/>
    <path class="st2" d="M242.2,51.3v-17h6.9v29.2h-6.7v-5.2h-.3c-.7,1.6-1.7,3-3.2,4s-3.4,1.6-5.6,1.5c-1.9,0-3.6-.4-5.1-1.3-1.5-.8-2.6-2.1-3.4-3.7-.8-1.7-1.2-3.6-1.2-6v-18.6h6.9v17.6c0,1.8.5,3.3,1.5,4.4,1,1.1,2.4,1.6,4,1.6,1,0,2-.2,2.9-.7.9-.5,1.7-1.2,2.3-2.2s.9-2.2.9-3.7h0Z"/>
    <path class="st2" d="M276.7,42.1l-6.2.7c-.3-1-.8-1.8-1.7-2.5s-2.1-1.1-3.7-1.1-2.6.3-3.6.9c-1,.6-1.5,1.4-1.5,2.4s.3,1.6,1,2.1c.6.5,1.7,1,3.2,1.3l5,1c2.7.6,4.8,1.5,6.1,2.8s2,3,2,5.1-.5,3.5-1.6,4.9c-1.1,1.4-2.5,2.5-4.4,3.3-1.9.8-4,1.2-6.5,1.2-3.6,0-6.5-.8-8.6-2.3-2.2-1.5-3.5-3.6-3.9-6.3l6.7-.6c.3,1.3,1,2.3,2,3s2.3,1,3.9,1,3-.3,4-1c1-.7,1.5-1.5,1.5-2.5,0-1.6-1.3-2.8-3.9-3.3l-5-1c-2.8-.6-4.9-1.6-6.2-3-1.3-1.4-2-3.1-2-5.2s.5-3.4,1.5-4.7c1-1.3,2.4-2.3,4.2-3.1s3.8-1.1,6.2-1.1c3.4,0,6.1.7,8.1,2.2,2,1.5,3.2,3.5,3.6,5.9h0Z"/>
    <path class="st2" d="M287.6,63.6V24.6h3.6v17.9h22.1v-17.9h3.5v39h-3.5v-17.9h-22.1v17.9s-3.6,0-3.6,0Z"/>
    <path class="st2" d="M336.1,64.2c-2.7,0-5.1-.6-7.1-1.9s-3.5-3.1-4.6-5.3c-1.1-2.3-1.6-4.9-1.6-7.8s.5-5.6,1.6-7.8c1.1-2.3,2.6-4.1,4.5-5.4s4.1-2,6.7-2,3.1.3,4.6.9,2.8,1.5,4,2.7c1.2,1.2,2.1,2.7,2.8,4.5.7,1.8,1,4,1,6.5v1.5h-22.8v-3h21l-1.5,1.2c0-2.1-.4-4-1.1-5.7-.7-1.7-1.8-3-3.1-4s-3-1.5-4.8-1.5-3.5.5-4.9,1.5c-1.4,1-2.5,2.3-3.3,3.9-.8,1.6-1.2,3.4-1.2,5.3v1.8c0,2.3.4,4.4,1.2,6.1s2,3.1,3.5,4c1.5,1,3.2,1.4,5.3,1.4s2.6-.2,3.6-.7c1-.4,1.9-1,2.6-1.8.7-.7,1.3-1.5,1.6-2.4l3.2,1.1c-.5,1.2-1.2,2.3-2.2,3.4s-2.3,1.9-3.8,2.5-3.2,1-5.2,1h0Z"/>
    <path class="st2" d="M361.1,64.3c-1.8,0-3.4-.3-4.8-1s-2.6-1.7-3.5-3-1.3-2.9-1.3-4.8.3-2.7.8-3.6c.5-1,1.3-1.8,2.3-2.4,1-.6,2.2-1.1,3.6-1.5s2.9-.7,4.5-.8c1.6-.2,3-.4,4.2-.5,1.1-.2,2-.4,2.6-.7s.9-.9.9-1.6v-.7c0-2-.6-3.6-1.8-4.7s-2.9-1.7-5.1-1.7-3.8.5-5.1,1.4c-1.3.9-2.2,2-2.8,3.3l-3.2-1.2c.7-1.6,1.6-2.9,2.8-3.8s2.5-1.7,3.9-2.1c1.5-.4,2.9-.6,4.4-.6s2.3.2,3.5.4c1.2.3,2.3.8,3.4,1.5,1,.7,1.9,1.7,2.5,3,.6,1.3,1,2.9,1,4.8v19.8h-3.4v-4.6h-.2c-.4.8-1,1.7-1.8,2.5-.8.8-1.8,1.5-3,2-1.2.5-2.6.8-4.3.8h0ZM361.6,61.2c1.8,0,3.4-.4,4.7-1.2,1.3-.8,2.3-1.9,3-3.2.7-1.3,1.1-2.8,1.1-4.4v-4.2c-.3.2-.7.5-1.3.7-.6.2-1.3.4-2,.5s-1.5.3-2.3.4c-.8.1-1.5.2-2,.3-1.6.2-3,.5-4.2,1-1.2.4-2.1,1-2.7,1.8-.6.8-.9,1.7-.9,2.9,0,1.8.6,3.1,1.9,4.1,1.3,1,2.9,1.5,4.8,1.5h0Z"/>
    <path class="st2" d="M383.9,24.6v39h-3.4V24.6h3.4Z"/>
    <path class="st2" d="M402.1,34.4v3h-13.9v-3h13.9ZM392.5,27.4h3.4v28.6c0,1.6.4,2.8,1.2,3.6s1.9,1.2,3.3,1.2.6,0,1,0c.3,0,.7-.1,1-.2l.7,3.1c-.4.2-.9.3-1.4.4s-1.1.1-1.6.1c-2.2,0-4-.7-5.4-2-1.4-1.3-2.1-3.1-2.1-5.2v-29.4h0Z"/>
    <path class="st2" d="M411.6,45.4v18.3h-3.4V24.6h3.4v14.4h.3c.7-1.5,1.7-2.7,3.2-3.6s3.2-1.4,5.5-1.4,3.7.4,5.2,1.2c1.5.8,2.7,2,3.5,3.6.9,1.6,1.3,3.5,1.3,5.9v18.9h-3.4v-18.7c0-2.4-.7-4.3-2-5.7-1.4-1.4-3.2-2.1-5.5-2.1s-2.9.3-4.1,1c-1.2.7-2.2,1.6-2.9,2.8s-1.1,2.7-1.1,4.4h0Z"/>
  </g>
  <path class="st0" d="M103.9,45.3c-1.4-8.9-6.3-15.3-14.1-19.6-.9-.5-1.5-1.1-2-2-7.7-13.6-24.2-17.9-37.6-9.4-.6.4-1.2.6-1.9.5-6-.2-11.5,1.3-16.3,4.8-7.8,5.6-11.4,13.3-11.1,22.9,0,1-.2,1.7-.7,2.5-3.6,5.8-4.8,12.1-3.6,18.8,1.6,8.2,6.3,14.3,13.6,18.3,1.1.6,1.8,1.3,2.4,2.4,7.5,13.2,23.5,17.5,36.5,9.8,1.3-.8,2.6-1.4,3.9-1.1,4.7,0,9.1-1,12.7-3.1,9.6-5.5,14.1-13.8,13.7-24.8,0-.8.1-1.3.5-2,3.4-5.5,4.9-11.5,3.9-18h0ZM57.4,15.9c0-.6.5-.9,1-1,4.8-1.4,9.6-1.3,14.2.5,2.8,1.1,5.2,2.7,7.4,4.7.5.5,1.4.9.9,1.8-.4.9-1.2.4-1.9.5-3.4-.4-6.8-.2-10.2.4-.7.1-1.2-.2-1.7-.6-2.7-2.1-5.7-4-8.9-5.2-.5-.2-1-.4-.9-1.1h0ZM43.2,27.9c1.7-3.2,3.9-6.1,6.8-8.4.3-.3.8-.4,1.3-.3,3.5.6,6.8,1.8,9.8,3.6.4.2.7.5.7,1.1,0,.5-.3.8-.8,1-5.4,1.8-10.9,3.4-16.6,4.5,0,0-.2,0-.2,0-.8,0-1.3-.7-.9-1.5ZM29.1,63.6c-.4,3.2-.5,6.4-.1,9.6,0,.4,0,.7,0,1.1,0,.5,0,.9-.5,1.1-.5.2-.9,0-1.3-.4-2.7-2.5-4.6-5.4-5.8-8.9-1.5-4.3-1.6-8.6-.4-13,.2-.6.2-1.3,1.1-1.3.8,0,1,.6,1.2,1.1,1.4,3.2,3.1,6.1,5.4,8.7.5.6.6,1.1.5,1.8h0ZM31.2,54.7c-.1.4-.2.9-.6,1.2-.7.5-1.2.2-1.6-.5-2.2-3.5-3.5-7.4-4-11.5-.1-1-.3-2.1-.2-3,0-10,6.9-18.8,16.4-21.3.6-.2,1.2-.4,1.6.2.4.6,0,1.1-.3,1.6-2.2,2.8-3.8,5.9-5,9.2-.2.6-.5.9-1.1,1.1-2.5,1-4.9,2.2-7.1,3.7-.5.4-.8.8-.8,1.4,0,.9,0,1.9,0,2.8,0,1,.4,1.1,1.2.6,1.3-.8,2.6-1.7,3.9-2.6.5-.3,1-.5,1.5-.1.5.4.4.9.3,1.4-1,5.3-2.2,10.5-4,15.6h0ZM35.4,80c-.5-.2-.8-.5-1-1-1.2-3.2-1.8-6.6-1.8-10.1,0-.5,0-1.1.6-1.3.6-.3,1,0,1.5.4,3.7,3.1,7.2,6.3,10.3,9.9.4.5.9.7,1.6.6.9,0,1.8-.2,2.8-.2.4,0,.7-.2.8-.5.1-.3-.2-.5-.4-.7-4-4.5-8.3-8.6-12.8-12.6-.7-.6-1.4-1.4-2.1-2-1.1-.8-1.2-1.7-.8-2.9,1.2-4,2.5-8.1,3.6-12.2,1-3.7,1.8-7.5,2.6-11.3.2-1.1.8-1.6,1.9-1.9,4.7-1.3,9.5-2,14.1-3.5,4.2-1.3,8.2-2.9,12.5-3.7,5.4-1.1,10.8-1.1,16.1.8.7.3,1.2.7,1.4,1.4,1.2,3.2,1.7,6.5,1.7,9.9,0,.6-.1,1-.6,1.3-.6.3-1-.1-1.4-.5-3.6-3.1-7.1-6.3-10.2-9.9-.4-.5-.9-.7-1.6-.6-.8.1-1.6.1-2.3.2-.4,0-.9,0-1.1.5-.2.5.3.7.6,1,4.2,4.9,9,9.3,13.9,13.6,1.6,1.4,1.9,2.7,1.3,4.6-2.4,7.3-4.1,14.7-5.7,22.3-.3,1.4-1,2-2.3,2.4-4.2,1.2-8.5,1.7-12.7,2.9-4,1.2-7.9,2.8-12,3.7-3,.7-6,1.2-9.2,1.1-3,.1-6-.7-9-1.7h0ZM61.7,93c-2.1.6-4.3.8-6.2.9-6.3-.1-11.4-2.4-15.7-6.6-.4-.4-.9-.8-.5-1.4.3-.6.9-.6,1.5-.5,3.4.4,6.8.3,10.2-.3.7-.1,1.2,0,1.7.4,2.8,2.2,5.8,4.1,9.1,5.3.5.2,1,.5,1,1.2,0,.7-.6.8-1.1.9h0ZM70.5,88.3c-.4.3-.7.5-1.2.4-3.7-.5-7-1.8-10.2-3.7-.4-.2-.6-.6-.5-1,.1-.5.5-.8,1-.9,3.8-1.2,7.5-2.5,11.3-3.3,1.5-.3,3-.7,4.6-1,.6-.1,1.1-.3,1.6.2.4.5.1,1-.2,1.5-1.7,3-3.8,5.6-6.4,7.8h0ZM79.1,88.1c-.2,0-.5.1-.8.2-.4,0-.8,0-1.1-.4-.3-.4-.2-.9,0-1.2,2.4-2.9,4.1-6.2,5.4-9.7.2-.6.7-.8,1.3-1,2.5-1,4.9-2.2,7.1-3.7.6-.4.8-.8.8-1.5,0-.9,0-1.8,0-2.7,0-.8-.4-1-1.1-.5-1.3.9-2.7,1.8-4,2.6-.5.3-1.1.6-1.6.2-.6-.4-.4-1-.3-1.5.9-5.5,2.4-10.8,4.1-16.1.2-.5.3-.9.9-1,.6,0,.9.3,1.2.8,2.7,4.4,4,9.1,4.1,12.3,0,11.9-6.7,20.7-16.2,23.2h0ZM99.3,55.1c-.2.5-.4,1-1,1-.5,0-.8-.4-1.1-.8-1.4-3.4-3.3-6.4-5.6-9.2-.5-.6-.5-1.1-.4-1.8.6-3.4.5-6.8,0-10.2,0-.6,0-1.1.5-1.5.6-.3,1,0,1.4.4,3.8,3.7,6.1,8,6.8,13.2,0,.5.1,1.1.2,1.7,0,.4,0,.8,0,1.2,0,2-.3,4-.8,5.9h0Z"/>
  <g class="st1">
    <g class="st1">
      <path class="st2" d="M131.6,84v3.6h-1.2v-8.8h3.2c1.6,0,2.7,1.1,2.7,2.6s-1.1,2.6-2.7,2.6h-2ZM133.4,82.9c1.1,0,1.7-.6,1.7-1.5s-.6-1.5-1.7-1.5h-1.8v3h1.8Z"/>
    </g>
    <g class="st1">
      <path class="st2" d="M146.3,85.2h-3.9l-.9,2.5h-1.3l3.5-8.8h1.4l3.5,8.8h-1.3l-1-2.5ZM142.8,84h3l-1.5-3.9-1.5,3.9Z"/>
      <path class="st2" d="M156.4,84h-1.3v3.6h-1.2v-8.8h3.3c1.7,0,2.7,1.2,2.7,2.6s-.8,2.2-2.1,2.5l2.1,3.7h-1.4l-2-3.6ZM156.9,82.9c1,0,1.7-.6,1.7-1.5s-.7-1.5-1.7-1.5h-1.9v3h1.9Z"/>
      <path class="st2" d="M168.7,80v7.6h-1.2v-7.6h-2.9v-1.1h7.1v1.1h-2.9Z"/>
      <path class="st2" d="M188,78.7c2.2,0,4.4,1.6,4.4,4.6s-2.2,4.6-4.4,4.6-4.4-1.6-4.4-4.6,2.2-4.6,4.4-4.6ZM188,86.7c1.6,0,3.2-1.2,3.2-3.5s-1.5-3.5-3.2-3.5-3.2,1.2-3.2,3.5,1.5,3.5,3.2,3.5Z"/>
      <path class="st2" d="M198.2,87.6v-8.8h5.3v1.1h-4.1v2.8h3.7v1.1h-3.7v3.7h-1.2Z"/>
      <path class="st2" d="M219.4,80v7.6h-1.2v-7.6h-2.9v-1.1h7.1v1.1h-2.9Z"/>
      <path class="st2" d="M233.3,87.6v-3.9h-4.5v3.9h-1.2v-8.8h1.2v3.7h4.5v-3.7h1.2v8.8h-1.2Z"/>
      <path class="st2" d="M240.8,87.6v-8.8h5.3v1.1h-4.1v2.7h3.7v1.1h-3.7v2.7h4.1v1.1h-5.3Z"/>
    </g>
    <g class="st1">
      <path class="st2" d="M259.3,87.6v-8.8h1.2v7.6h4.1v1.1h-5.4Z"/>
    </g>
    <g class="st1">
      <path class="st2" d="M273.6,78.7c2.2,0,4.4,1.6,4.4,4.6s-2.2,4.6-4.4,4.6-4.4-1.6-4.4-4.6,2.2-4.6,4.4-4.6ZM273.6,86.7c1.6,0,3.2-1.2,3.2-3.5s-1.5-3.5-3.2-3.5-3.2,1.2-3.2,3.5,1.5,3.5,3.2,3.5Z"/>
      <path class="st2" d="M283.1,83.2c0-2.9,2.2-4.6,4.4-4.6s3.4,1.1,3.9,2.8l-1.1.4c-.3-1.3-1.3-2.1-2.7-2.1s-3.1,1.2-3.1,3.5,1.5,3.5,3.1,3.5,2.4-.9,2.8-2.1l1.1.4c-.5,1.6-1.9,2.8-3.9,2.8s-4.4-1.6-4.4-4.6Z"/>
    </g>
    <g class="st1">
      <path class="st2" d="M299.5,83.6l-1.2,1.3v2.6h-1.2v-8.8h1.2v4.5l4.1-4.5h1.6l-3.7,3.9,3.7,4.9h-1.5l-3-4Z"/>
    </g>
    <g class="st1">
      <path class="st2" d="M319.1,78.8h1.2l-2.5,8.8h-1.2l-2.3-7.1-2.3,7.1h-1.2l-2.5-8.8h1.2l1.9,6.9,2.2-6.9h1.3l2.3,6.9,1.9-6.9Z"/>
    </g>
    <g class="st1">
      <path class="st2" d="M329.3,78.7c2.2,0,4.4,1.6,4.4,4.6s-2.2,4.6-4.4,4.6-4.4-1.6-4.4-4.6,2.2-4.6,4.4-4.6ZM329.3,86.7c1.6,0,3.2-1.2,3.2-3.5s-1.5-3.5-3.2-3.5-3.2,1.2-3.2,3.5,1.5,3.5,3.2,3.5Z"/>
      <path class="st2" d="M343.3,78.7c2.2,0,4.4,1.6,4.4,4.6s-2.2,4.6-4.4,4.6-4.4-1.6-4.4-4.6,2.2-4.6,4.4-4.6ZM343.3,86.7c1.6,0,3.2-1.2,3.2-3.5s-1.5-3.5-3.2-3.5-3.2,1.2-3.2,3.5,1.5,3.5,3.2,3.5Z"/>
      <path class="st2" d="M353.5,87.6v-8.8h3.1c2.2,0,4.2,1.5,4.2,4.4s-2,4.4-4.2,4.4h-3ZM356.5,86.5c1.6,0,3-1.1,3-3.3s-1.3-3.3-3-3.3h-1.8v6.6h1.8Z"/>
      <path class="st2" d="M380.3,87.6v-1.2c-.5.7-1.4,1.4-2.9,1.4-2.2,0-4.3-1.6-4.3-4.6s2.2-4.6,4.3-4.6,3.4,1.1,3.9,2.6l-1.1.5c-.4-1.3-1.4-2-2.8-2s-3.1,1.1-3.1,3.5,1.5,3.5,3.1,3.5,2.7-1.4,2.7-2.3h-3v-1.1h4.2v4.3h-1Z"/>
    </g>
    <g class="st1">
      <path class="st2" d="M389.7,84h-1.3v3.6h-1.2v-8.8h3.3c1.7,0,2.7,1.2,2.7,2.6s-.8,2.2-2.1,2.5l2.1,3.7h-1.4l-2-3.6ZM390.2,82.9c1,0,1.7-.6,1.7-1.5s-.7-1.5-1.7-1.5h-1.9v3h1.9Z"/>
    </g>
    <g class="st1">
      <path class="st2" d="M402.7,78.7c2.2,0,4.4,1.6,4.4,4.6s-2.2,4.6-4.4,4.6-4.4-1.6-4.4-4.6,2.2-4.6,4.4-4.6ZM402.7,86.7c1.6,0,3.2-1.2,3.2-3.5s-1.5-3.5-3.2-3.5-3.2,1.2-3.2,3.5,1.5,3.5,3.2,3.5Z"/>
      <path class="st2" d="M412.7,84.6v-5.8h1.2v5.7c0,1.3.7,2.1,2,2.1s1.9-.8,1.9-2.1v-5.7h1.2v5.8c0,2.1-1.4,3.2-3.2,3.2s-3.2-1.1-3.2-3.2Z"/>
      <path class="st2" d="M426.4,84v3.6h-1.2v-8.8h3.2c1.6,0,2.7,1.1,2.7,2.6s-1.1,2.6-2.7,2.6h-2ZM428.2,82.9c1.1,0,1.7-.6,1.7-1.5s-.6-1.5-1.7-1.5h-1.8v3h1.8Z"/>
    </g>
  </g>
  <path class="st2" d="M437.1,31v-4.8h-1.5v-1h4.1v1h-1.5v4.8h-1.2ZM440.4,31v-5.9h1.1l2.2,3h-.5l2.1-3h1.1v5.9h-1.1v-4.6h.5c0,.1-2.2,3.1-2.2,3.1h-.1l-2.2-2.9h.4c0-.1,0,4.4,0,4.4h-1.1Z"/>
</svg>